<?xml version="1.0" encoding="UTF-8"?>
<svg version="1.1" xmlns="http://www.w3.org/2000/svg" width="94" height="94">
<path d="M0 0 C5.07920134 0.35285128 7.52048096 3.07974872 10.8125 6.625 C13.99528806 9.98201277 17.19171682 13.21770131 20.703125 16.234375 C26.00066793 20.80691116 30.96506222 25.70425076 35.9375 30.625 C36.65740112 31.32302734 36.65740112 31.32302734 37.3918457 32.03515625 C38.80083825 33.40156739 40.19556139 34.78264435 41.58984375 36.1640625 C42.41347412 36.97311035 43.23710449 37.7821582 44.08569336 38.61572266 C46.13503907 41.16819176 46.67139241 42.78114744 47 46 C45.66666667 46.66666667 44.33333333 47.33333333 43 48 C42.4225 48.350625 41.845 48.70125 41.25 49.0625 C39 50 39 50 31 51 C33.64 56.94 36.28 62.88 39 69 C39.66 69 40.32 69 41 69 C41 70.65 41 72.3 41 74 C40.401875 74.268125 39.80375 74.53625 39.1875 74.8125 C36.98271274 75.86569131 36.98271274 75.86569131 35.5625 77.5 C32.88062092 80.07460392 30.26119468 81.02421494 26.55859375 80.953125 C23.43418229 79.78922211 22.68595807 78.33414916 21.27368164 75.38916016 C20.9977417 74.7657373 20.72180176 74.14231445 20.4375 73.5 C19.99361938 72.55519775 19.99361938 72.55519775 19.54077148 71.59130859 C18.67456033 69.73564968 17.8342698 67.87019745 17 66 C16.55914062 65.03320312 16.11828125 64.06640625 15.6640625 63.0703125 C14.75646695 61.05557911 13.87467362 59.02924281 13 57 C8.57376044 58.34128472 5.96831807 60.67789418 2.74609375 63.85546875 C1 65 1 65 -1.15234375 64.86328125 C-2.06693359 64.43595703 -2.06693359 64.43595703 -3 64 C-4.00006087 60.99981738 -4.14385029 58.95052278 -4.17700195 55.81347656 C-4.18983719 54.75517639 -4.20267242 53.69687622 -4.21589661 52.60650635 C-4.22328354 51.4627655 -4.23067047 50.31902466 -4.23828125 49.140625 C-4.246353 47.96288513 -4.25442474 46.78514526 -4.26274109 45.57171631 C-4.27658019 43.0767972 -4.28730312 40.58185917 -4.29516602 38.08691406 C-4.3123693 34.27893002 -4.35625776 30.47181621 -4.40039062 26.6640625 C-4.41051847 24.23958971 -4.41903429 21.81510955 -4.42578125 19.390625 C-4.44328934 18.25498108 -4.46079742 17.11933716 -4.47883606 15.94927979 C-4.46093382 9.39613587 -3.87465833 5.35156323 0 0 Z " fill="#15B1F2" transform="translate(27,7)"/>
<path d="M0 0 C2.54052734 0.84228516 2.54052734 0.84228516 3.91845703 2.74414062 C4.26295898 3.5577002 4.60746094 4.37125977 4.96240234 5.20947266 C5.34783203 6.09505859 5.73326172 6.98064453 6.13037109 7.89306641 C6.70464844 9.29105469 6.70464844 9.29105469 7.29052734 10.71728516 C7.68884766 11.64154297 8.08716797 12.56580078 8.49755859 13.51806641 C9.95988076 16.93345614 11.36533372 20.3167043 12.54052734 23.84228516 C15.51052734 23.51228516 18.48052734 23.18228516 21.54052734 22.84228516 C19.34009306 26.31665508 17.54231673 27.79419746 13.54052734 28.84228516 C11.09912109 28.79150391 11.09912109 28.79150391 8.54052734 27.84228516 C7.08316613 25.63654926 6.03407211 23.72817549 4.97802734 21.34228516 C4.53414673 20.39748291 4.53414673 20.39748291 4.08129883 19.43359375 C3.21508767 17.57793483 2.37479714 15.7124826 1.54052734 13.84228516 C1.09966797 12.87548828 0.65880859 11.90869141 0.20458984 10.91259766 C-0.70300571 8.89786427 -1.58479903 6.87152796 -2.45947266 4.84228516 C-6.85539646 6.17438328 -9.54255051 8.50908729 -12.81103516 11.60009766 C-14.45947266 12.84228516 -14.45947266 12.84228516 -17.45947266 12.84228516 C-17.39697266 11.02978516 -17.39697266 11.02978516 -16.45947266 8.84228516 C-14.79953118 8.1119109 -13.13194374 7.3934119 -11.42822266 6.77197266 C-8.50587581 5.39197554 -6.47316345 3.24655378 -4.23291016 0.95166016 C-2.45947266 -0.15771484 -2.45947266 -0.15771484 0 0 Z " fill="#194AAC" transform="translate(42.45947265625,59.15771484375)"/>
<path d="M0 0 C2 2 2 2 3 5 C4.0209375 4.7215625 4.0209375 4.7215625 5.0625 4.4375 C8.57232191 3.91476057 11.52188063 4.38621423 15 5 C13.33333333 6.66666667 11.66666667 8.33333333 10 10 C9.2884375 10.8353125 9.2884375 10.8353125 8.5625 11.6875 C6.31249617 13.57750322 3.77510049 14.11432963 1 15 C0.34 15.66 -0.32 16.32 -1 17 C-1.02699725 14.72923158 -1.04639453 12.45837179 -1.0625 10.1875 C-1.07990234 8.29064453 -1.07990234 8.29064453 -1.09765625 6.35546875 C-1 3 -1 3 0 0 Z " fill="#128EE9" transform="translate(25,54)"/>
<path d="M0 0 C3.32993034 3.82941989 5.05324525 8.37522222 7 13 C7.66 13 8.32 13 9 13 C9 14.65 9 16.3 9 18 C4.05 19.485 4.05 19.485 -1 21 C-1.17835515 16.45194365 -0.99785435 13.1205746 1 9 C-0.32 8.67 -1.64 8.34 -3 8 C-1.125 1.125 -1.125 1.125 0 0 Z " fill="#127DE4" transform="translate(59,63)"/>
<path d="M0 0 C1.32 0.33 2.64 0.66 4 1 C3.01 1.33 2.02 1.66 1 2 C1.01160156 2.83402344 1.02320313 3.66804687 1.03515625 4.52734375 C1.08788813 11.10376299 1.06539798 17.50107231 0 24 C-0.66 24.66 -1.32 25.32 -2 26 C-2.45811675 27.97235333 -2.45811675 27.97235333 -2.625 30.125 C-2.74875 31.40375 -2.8725 32.6825 -3 34 C-3.33 34 -3.66 34 -4 34 C-4.11673963 29.64606096 -4.18743418 25.29252789 -4.25 20.9375 C-4.28351562 19.70837891 -4.31703125 18.47925781 -4.3515625 17.21289062 C-4.42670696 10.24324184 -4.25765486 5.64055456 0 0 Z " fill="#40CCF3" transform="translate(27,7)"/>
<path d="M0 0 C0.33 0 0.66 0 1 0 C1 8.25 1 16.5 1 25 C0.34 25.33 -0.32 25.66 -1 26 C-1.4683265 28.58605332 -1.4683265 28.58605332 -1.625 31.5625 C-1.69976563 32.57441406 -1.77453125 33.58632812 -1.8515625 34.62890625 C-1.90054687 35.41136719 -1.94953125 36.19382813 -2 37 C-2.33 37 -2.66 37 -3 37 C-3.0292427 32.66668104 -3.04688017 28.33338779 -3.0625 24 C-3.07087891 22.77925781 -3.07925781 21.55851562 -3.08789062 20.30078125 C-3.12149156 7.86843384 -3.12149156 7.86843384 -2 2 C-1.34 1.34 -0.68 0.68 0 0 Z " fill="#369AE0" transform="translate(26,31)"/>
<path d="M0 0 C1.0209375 0.433125 1.0209375 0.433125 2.0625 0.875 C2.42652369 2.31003555 2.77836591 3.74816506 3.125 5.1875 C3.42083984 6.38826172 3.42083984 6.38826172 3.72265625 7.61328125 C4.0625 9.875 4.0625 9.875 3.0625 12.875 C2.670625 11.92625 2.27875 10.9775 1.875 10 C-0.18794378 6.44320038 -1.1926371 6.1375888 -4.9375 4.875 C-5.62457031 5.4525 -6.31164063 6.03 -7.01953125 6.625 C-8.37111328 7.73875 -8.37111328 7.73875 -9.75 8.875 C-11.08998047 9.98875 -11.08998047 9.98875 -12.45703125 11.125 C-14.9375 12.875 -14.9375 12.875 -17.9375 12.875 C-17.875 11.0625 -17.875 11.0625 -16.9375 8.875 C-15.27755852 8.14462575 -13.60997108 7.42612675 -11.90625 6.8046875 C-9.61949541 5.72483117 -8.1396427 4.36399108 -6.3125 2.625 C-3.29527244 -0.14022436 -3.29527244 -0.14022436 0 0 Z " fill="#13347A" transform="translate(42.9375,59.125)"/>
<path d="M0 0 C4.95 0 9.9 0 15 0 C12 4 12 4 9 5 C7.27204648 5.06802967 5.54164635 5.08495645 3.8125 5.0625 C2.46091797 5.04896484 2.46091797 5.04896484 1.08203125 5.03515625 C0.39496094 5.02355469 -0.29210938 5.01195312 -1 5 C-0.67 3.35 -0.34 1.7 0 0 Z " fill="#20407D" transform="translate(57,52)"/>
<path d="M0 0 C0.99 0.33 1.98 0.66 3 1 C4.1875 3.5625 4.1875 3.5625 5 6 C5 4.02 5 2.04 5 0 C7.80178062 3.2334275 8.74124175 6.10448769 9.6875 10.25 C10.06455078 11.86648437 10.06455078 11.86648437 10.44921875 13.515625 C10.63097656 14.33546875 10.81273437 15.1553125 11 16 C10.01 16 9.02 16 8 16 C7.731875 14.865625 7.46375 13.73125 7.1875 12.5625 C6.5996875 10.7990625 6.5996875 10.7990625 6 9 C5.01 8.67 4.02 8.34 3 8 C2.05078125 6.15234375 2.05078125 6.15234375 1.3125 3.9375 C1.06113281 3.20402344 0.80976562 2.47054687 0.55078125 1.71484375 C0.36902344 1.14894531 0.18726563 0.58304687 0 0 Z " fill="#19469F" transform="translate(41,65)"/>
<path d="M0 0 C0.33 0 0.66 0 1 0 C1 17.82 1 35.64 1 54 C0.67 54 0.34 54 0 54 C0 36.18 0 18.36 0 0 Z " fill="#3CADE6" transform="translate(21,14)"/>
<path d="M0 0 C3.30616284 3.80208727 7 9.83581485 7 15 C6.01 15 5.02 15 4 15 C4 13.35 4 11.7 4 10 C1.69 9.34 -0.62 8.68 -3 8 C-1.125 1.125 -1.125 1.125 0 0 Z " fill="#168EE8" transform="translate(59,63)"/>
<path d="M0 0 C0.33 0 0.66 0 1 0 C1 5.28 1 10.56 1 16 C0.01 15.67 -0.98 15.34 -2 15 C-2.05386629 12.87527424 -2.09273071 10.75016348 -2.125 8.625 C-2.14820312 7.44164062 -2.17140625 6.25828125 -2.1953125 5.0390625 C-2 2 -2 2 0 0 Z " fill="#2AA4E1" transform="translate(26,31)"/>
<path d="M0 0 C2.51651633 2.51651633 2.4910158 3.88168034 2.875 7.375 C3.05675781 8.80972656 3.05675781 8.80972656 3.2421875 10.2734375 C3 13 3 13 1.0078125 15.3515625 C0.34523438 15.89554688 -0.31734375 16.43953125 -1 17 C-1.02699725 14.72923158 -1.04639453 12.45837179 -1.0625 10.1875 C-1.07990234 8.29064453 -1.07990234 8.29064453 -1.09765625 6.35546875 C-1 3 -1 3 0 0 Z " fill="#278ADC" transform="translate(25,54)"/>
<path d="M0 0 C0.99 0.33 1.98 0.66 3 1 C1.40320196 2.3421492 -0.20270197 3.67347115 -1.8125 5 C-3.15248047 6.11375 -3.15248047 6.11375 -4.51953125 7.25 C-7 9 -7 9 -10 9 C-9.9375 7.1875 -9.9375 7.1875 -9 5 C-5.5625 3.375 -5.5625 3.375 -2 2 C-1.34 1.34 -0.68 0.68 0 0 Z " fill="#224592" transform="translate(35,63)"/>
<path d="M0 0 C0.99 1.32 1.98 2.64 3 4 C2.34 4 1.68 4 1 4 C1.33 4.99 1.66 5.98 2 7 C1.67 7.33 1.34 7.66 1 8 C1.66 8.66 2.32 9.32 3 10 C2.01 10.33 1.02 10.66 0 11 C-0.69710731 9.71349294 -1.38242876 8.42059335 -2.0625 7.125 C-2.63677734 6.04605469 -2.63677734 6.04605469 -3.22265625 4.9453125 C-3.47917969 4.30335937 -3.73570313 3.66140625 -4 3 C-3 1 -3 1 0 0 Z " fill="#128AE6" transform="translate(50,62)"/>
<path d="M0 0 C0.99 0.33 1.98 0.66 3 1 C0.63907689 3.73370045 -1.56538728 4.91097645 -5 6 C-6.32 6 -7.64 6 -9 6 C-9 5.01 -9 4.02 -9 3 C-7.88625 2.690625 -6.7725 2.38125 -5.625 2.0625 C-2.2054845 1.17673517 -2.2054845 1.17673517 0 0 Z " fill="#214090" transform="translate(61,82)"/>
<path d="M0 0 C2.0625 0.4375 2.0625 0.4375 4 1 C3.01 1.33 2.02 1.66 1 2 C1 6.29 1 10.58 1 15 C0.01 15.495 0.01 15.495 -1 16 C-1.02685095 13.52076199 -1.04676547 11.0418116 -1.0625 8.5625 C-1.07506836 7.50192383 -1.07506836 7.50192383 -1.08789062 6.41992188 C-1.09653588 4.61306441 -1.05220011 2.80612397 -1 1 C-0.67 0.67 -0.34 0.34 0 0 Z " fill="#2AE2FC" transform="translate(27,7)"/>
<path d="M0 0 C0.33 0 0.66 0 1 0 C1.04241723 2.33294775 1.04092937 4.66702567 1 7 C0.67 7.33 0.34 7.66 0 8 C-0.23075082 9.34747084 -0.41153063 10.70377565 -0.5625 12.0625 C-0.706875 13.361875 -0.85125 14.66125 -1 16 C-1.33 16 -1.66 16 -2 16 C-2.05384521 13.70858714 -2.09272087 11.41681812 -2.125 9.125 C-2.14820312 7.84882812 -2.17140625 6.57265625 -2.1953125 5.2578125 C-2 2 -2 2 0 0 Z " fill="#3EBCEC" transform="translate(25,25)"/>
<path d="M0 0 C0.66 0 1.32 0 2 0 C2.66 2.64 3.32 5.28 4 8 C3.01 8 2.02 8 1 8 C0.34 5.69 -0.32 3.38 -1 1 C-0.67 0.67 -0.34 0.34 0 0 Z " fill="#153E90" transform="translate(48,73)"/>
<path d="M0 0 C0.33 0 0.66 0 1 0 C1 2.97 1 5.94 1 9 C0.01 8.34 -0.98 7.68 -2 7 C-2.3125 4.5 -2.3125 4.5 -2 2 C-1.34 1.34 -0.68 0.68 0 0 Z " fill="#2CB3E9" transform="translate(26,31)"/>
<path d="M0 0 C0.33 0 0.66 0 1 0 C1.36923077 5.41538462 1.36923077 5.41538462 -0.5 8.375 C-0.995 8.91125 -1.49 9.4475 -2 10 C-2.17942163 6.05272412 -2.09350689 3.4019487 0 0 Z " fill="#5EDAF9" transform="translate(25,10)"/>
<path d="M0 0 C0.99 0.99 1.98 1.98 3 3 C1.68 4.65 0.36 6.3 -1 8 C-1.125 2.25 -1.125 2.25 0 0 Z " fill="#226ECE" transform="translate(25,63)"/>
<path d="M0 0 C3.7952131 1.49097658 5.61042731 3.75700849 8 7 C4.2047869 5.50902342 2.38957269 3.24299151 0 0 Z " fill="#14DCFD" transform="translate(37,12)"/>
<path d="M0 0 C2.31 0 4.62 0 7 0 C7 0.33 7 0.66 7 1 C4.69 1.33 2.38 1.66 0 2 C0 1.34 0 0.68 0 0 Z " fill="#1E509B" transform="translate(59,58)"/>
<path d="M0 0 C4 1 4 1 4 1 Z " fill="#1E3A89" transform="translate(52,89)"/>
<path d="M0 0 C0.66 0.33 1.32 0.66 2 1 C1.01 1 0.02 1 -1 1 C-0.67 0.67 -0.34 0.34 0 0 Z " fill="#1E3586" transform="translate(36,65)"/>
<path d="M0 0 C4 1 4 1 4 1 Z " fill="#10EAFE" transform="translate(27,5)"/>
<path d="M0 0 C3 1 3 1 3 1 Z " fill="#1D3C94" transform="translate(25,73)"/>
<path d="" fill="#128CEF" transform="translate(0,0)"/>
<path d="" fill="#1B52B7" transform="translate(0,0)"/>
<path d="M0 0 C0.66 0 1.32 0 2 0 C1.67 0.66 1.34 1.32 1 2 C0.67 1.34 0.34 0.68 0 0 Z " fill="#1BE4FD" transform="translate(35,10)"/>
<path d="M0 0 C0.66 0 1.32 0 2 0 C1.67 0.66 1.34 1.32 1 2 C0.67 1.34 0.34 0.68 0 0 Z " fill="#22E9FE" transform="translate(32,7)"/>
<path d="M0 0 C2 1 2 1 2 1 Z " fill="#273F85" transform="translate(56,88)"/>
<path d="M0 0 C2 1 2 1 2 1 Z " fill="#1F3877" transform="translate(58,87)"/>
<path d="" fill="#133E9B" transform="translate(0,0)"/>
<path d="M0 0 C2 1 2 1 2 1 Z " fill="#175BBC" transform="translate(64,83)"/>
<path d="" fill="#1E4CAE" transform="translate(0,0)"/>
<path d="" fill="#2251B3" transform="translate(0,0)"/>
<path d="" fill="#113991" transform="translate(0,0)"/>
<path d="" fill="#204FAD" transform="translate(0,0)"/>
<path d="" fill="#1B86E7" transform="translate(0,0)"/>
<path d="" fill="#1E4BA8" transform="translate(0,0)"/>
<path d="" fill="#158BE9" transform="translate(0,0)"/>
<path d="" fill="#183E90" transform="translate(0,0)"/>
<path d="" fill="#1D48A0" transform="translate(0,0)"/>
<path d="" fill="#1B4397" transform="translate(0,0)"/>
<path d="" fill="#1293EA" transform="translate(0,0)"/>
<path d="" fill="#0C94EB" transform="translate(0,0)"/>
<path d="M0 0 C2 1 2 1 2 1 Z " fill="#162C6A" transform="translate(38,64)"/>
<path d="" fill="#0D90EA" transform="translate(0,0)"/>
<path d="M0 0 C2 1 2 1 2 1 Z " fill="#102B5F" transform="translate(66,57)"/>
<path d="" fill="#149FE7" transform="translate(0,0)"/>
<path d="" fill="#47D8FB" transform="translate(0,0)"/>
<path d="" fill="#28D0F9" transform="translate(0,0)"/>
<path d="" fill="#32F0FD" transform="translate(0,0)"/>
<path d="" fill="#092E8C" transform="translate(0,0)"/>
<path d="" fill="#284383" transform="translate(0,0)"/>
<path d="" fill="#0D2B8F" transform="translate(0,0)"/>
<path d="" fill="#233C7E" transform="translate(0,0)"/>
<path d="" fill="#15449D" transform="translate(0,0)"/>
<path d="" fill="#1F3A80" transform="translate(0,0)"/>
<path d="" fill="#1E51B2" transform="translate(0,0)"/>
<path d="" fill="#06266F" transform="translate(0,0)"/>
<path d="" fill="#2B4281" transform="translate(0,0)"/>
<path d="" fill="#283C75" transform="translate(0,0)"/>
<path d="" fill="#188DE7" transform="translate(0,0)"/>
<path d="" fill="#233571" transform="translate(0,0)"/>
<path d="" fill="#1E3075" transform="translate(0,0)"/>
<path d="" fill="#2A4B8E" transform="translate(0,0)"/>
<path d="" fill="#2B4F93" transform="translate(0,0)"/>
<path d="" fill="#2D58A2" transform="translate(0,0)"/>
<path d="" fill="#2266B4" transform="translate(0,0)"/>
<path d="" fill="#14AEF2" transform="translate(0,0)"/>
<path d="" fill="#14ACF1" transform="translate(0,0)"/>
<path d="" fill="#0CAEF3" transform="translate(0,0)"/>
<path d="" fill="#0AAFF4" transform="translate(0,0)"/>
<path d="" fill="#0DB1F5" transform="translate(0,0)"/>
<path d="" fill="#0DB4F6" transform="translate(0,0)"/>
<path d="" fill="#0FB7F6" transform="translate(0,0)"/>
<path d="" fill="#12B9F7" transform="translate(0,0)"/>
<path d="" fill="#17BCF7" transform="translate(0,0)"/>
<path d="" fill="#19BEF7" transform="translate(0,0)"/>
<path d="" fill="#1ABFF7" transform="translate(0,0)"/>
<path d="" fill="#1CC3F8" transform="translate(0,0)"/>
<path d="" fill="#1BC4F8" transform="translate(0,0)"/>
<path d="" fill="#1CC4F8" transform="translate(0,0)"/>
<path d="" fill="#1DC8F9" transform="translate(0,0)"/>
<path d="" fill="#1CC8FA" transform="translate(0,0)"/>
<path d="" fill="#1BC6FA" transform="translate(0,0)"/>
<path d="" fill="#1BC8FB" transform="translate(0,0)"/>
<path d="" fill="#1BCEFC" transform="translate(0,0)"/>
<path d="" fill="#1BC7FB" transform="translate(0,0)"/>
<path d="" fill="#1CD0FD" transform="translate(0,0)"/>
<path d="" fill="#1BCEFD" transform="translate(0,0)"/>
<path d="" fill="#1DCEFD" transform="translate(0,0)"/>
<path d="" fill="#1DCFFD" transform="translate(0,0)"/>
<path d="" fill="#1DD3FD" transform="translate(0,0)"/>
<path d="" fill="#20D8FD" transform="translate(0,0)"/>
<path d="" fill="#1FD8FD" transform="translate(0,0)"/>
<path d="" fill="#20DBFE" transform="translate(0,0)"/>
<path d="" fill="#22DBFE" transform="translate(0,0)"/>
<path d="" fill="#1DE5FD" transform="translate(0,0)"/>
<path d="" fill="#31F1FE" transform="translate(0,0)"/>
<path d="" fill="#17EAFE" transform="translate(0,0)"/>
<path d="" fill="#1DF1FE" transform="translate(0,0)"/>
</svg>
