<?xml version="1.0" encoding="UTF-8"?>
<svg version="1.1" xmlns="http://www.w3.org/2000/svg" width="94" height="94">
<path d="M0 0 C1.45654747 -0.01902626 1.45654747 -0.01902626 2.94252014 -0.03843689 C3.98427902 -0.03550125 5.0260379 -0.03256561 6.09936523 -0.02954102 C7.17419662 -0.03478287 8.24902802 -0.04002472 9.35643005 -0.04542542 C11.62677141 -0.05184478 13.89714602 -0.05050976 16.16748047 -0.04199219 C19.6486291 -0.03347011 23.12814385 -0.06226607 26.60913086 -0.09399414 C28.81420849 -0.09560587 31.01928904 -0.09502916 33.22436523 -0.09204102 C34.7900399 -0.10889198 34.7900399 -0.10889198 36.38734436 -0.12608337 C37.35522385 -0.11670242 38.32310333 -0.10732147 39.3203125 -0.09765625 C40.59794212 -0.097407 40.59794212 -0.097407 41.90138245 -0.09715271 C44.09545898 0.40405273 44.09545898 0.40405273 45.87261963 1.96525574 C47.53535098 5.28136117 47.49144087 8.30178506 47.43603516 11.92651367 C47.43669228 13.05392723 47.43669228 13.05392723 47.43736267 14.20411682 C47.43527665 16.68248692 47.41195502 19.16017617 47.38842773 21.63842773 C47.3828311 23.35906606 47.37856132 25.07970918 47.37556458 26.800354 C47.36412106 31.32469934 47.33465818 35.84875485 47.30145264 40.37298584 C47.27074109 44.99137451 47.25705692 49.60981009 47.24194336 54.22827148 C47.20978797 63.28699243 47.1585976 72.34549846 47.09545898 81.40405273 C42.37252808 82.52557373 42.37252808 82.52557373 39.87890625 81.43188477 C39.14728271 80.93027832 38.41565918 80.42867188 37.66186523 79.91186523 C36.44080078 79.10168945 36.44080078 79.10168945 35.19506836 78.27514648 C34.35782227 77.69893555 33.52057617 77.12272461 32.65795898 76.52905273 C25.51540888 71.31162346 25.51540888 71.31162346 17.09545898 69.40405273 C13.77740757 70.72834546 13.77740757 70.72834546 11.09545898 72.40405273 C11.09545898 73.06405273 11.09545898 73.72405273 11.09545898 74.40405273 C10.40838867 74.48397461 9.72131836 74.56389648 9.01342773 74.64624023 C4.69334287 75.76818999 1.32093483 78.25939729 -2.35180664 80.69702148 C-3.83546678 81.65411092 -5.36722059 82.5357708 -6.90454102 83.40405273 C-7.56454102 83.07405273 -8.22454102 82.74405273 -8.90454102 82.40405273 C-10.89416701 74.10675931 -10.0129733 64.9254935 -9.92407227 56.43920898 C-9.91711523 55.69087736 -9.9101582 54.94254574 -9.90299034 54.1715374 C-9.86587352 50.22575562 -9.82199485 46.28011733 -9.77246094 42.33447266 C-9.72272612 38.26358543 -9.69680319 34.19289705 -9.67603016 30.12177372 C-9.65570264 26.98092873 -9.61785303 23.84047111 -9.57517052 20.69985771 C-9.55783224 19.19800379 -9.54713591 17.69605787 -9.54322243 16.19410896 C-9.53616155 14.10200016 -9.50431408 12.01166544 -9.46630859 9.91992188 C-9.45440994 8.73096817 -9.44251129 7.54201447 -9.43025208 6.31703186 C-8.90454102 3.40405273 -8.90454102 3.40405273 -7.17596436 1.52206421 C-4.57977707 0.2442015 -2.88603656 0.01829011 0 0 Z " fill="#F15B73" transform="translate(27.904541015625,5.595947265625)"/>
<path d="M0 0 C0.66 0 1.32 0 2 0 C2 25.08 2 50.16 2 76 C-3 77 -3 77 -5.21655273 76.02783203 C-5.94817627 75.52622559 -6.6797998 75.02461914 -7.43359375 74.5078125 C-8.6546582 73.69763672 -8.6546582 73.69763672 -9.90039062 72.87109375 C-10.73763672 72.29488281 -11.57488281 71.71867187 -12.4375 71.125 C-19.5800501 65.90757073 -19.5800501 65.90757073 -28 64 C-31.31805142 65.32429273 -31.31805142 65.32429273 -34 67 C-34 67.66 -34 68.32 -34 69 C-34.68707031 69.07992187 -35.37414062 69.15984375 -36.08203125 69.2421875 C-40.40211612 70.36413725 -43.77452416 72.85534456 -47.44726562 75.29296875 C-48.93092577 76.25005818 -50.46267957 77.13171807 -52 78 C-52.66 77.67 -53.32 77.34 -54 77 C-55.6618995 67.2276329 -54.88327419 57.23949162 -54.5625 47.375 C-54.50917599 45.58986127 -54.45643663 43.80470497 -54.40429688 42.01953125 C-54.27627537 37.6794555 -54.14032888 33.33969453 -54 29 C-46.9035241 39.64471385 -50.20963253 56.91331325 -51 69 C-50.40050537 68.63648437 -49.80101074 68.27296875 -49.18334961 67.8984375 C-46.44401554 66.24960519 -43.69117458 64.62475949 -40.9375 63 C-39.99455078 62.42765625 -39.05160156 61.8553125 -38.08007812 61.265625 C-28.91156023 55.8986877 -28.91156023 55.8986877 -23 57 C-20.49557138 58.13786328 -18.36622871 59.24410642 -16.0625 60.6875 C-15.20881836 61.19700195 -15.20881836 61.19700195 -14.33789062 61.71679688 C-12.5463513 62.79252475 -10.77196757 63.89234582 -9 65 C-8.2663623 65.45713379 -7.53272461 65.91426758 -6.77685547 66.38525391 C-4.84976021 67.58783261 -2.9242018 68.79279878 -1 70 C-1.03029297 69.2972998 -1.06058594 68.59459961 -1.09179688 67.87060547 C-2.05723989 45.03045158 -2.60430155 22.74113319 0 0 Z " fill="#993230" transform="translate(73,11)"/>
<path d="M0 0 C0.66 0 1.32 0 2 0 C2 10.56 2 21.12 2 32 C1.34 32 0.68 32 0 32 C0 45.2 0 58.4 0 72 C-5.03732443 72 -5.94402101 71.8066322 -9.8125 69.125 C-10.60269531 68.59132813 -11.39289062 68.05765625 -12.20703125 67.5078125 C-12.79871094 67.01023437 -13.39039063 66.51265625 -14 66 C-14 65.34 -14 64.68 -14 64 C-15.32 63.67 -16.64 63.34 -18 63 C-18 62.34 -18 61.68 -18 61 C-21.95729388 59.68090204 -25.91442256 59.1617636 -30 60 C-33.19198041 61.61876049 -36.16612807 63.42363485 -39.16796875 65.37109375 C-41.88719954 66.93512029 -43.91587804 67.59968435 -47 68 C-44.25897289 64.85179133 -40.81397548 62.8914857 -37.25 60.8125 C-36.65445313 60.44447266 -36.05890625 60.07644531 -35.4453125 59.69726562 C-31.10322454 57.16438098 -27.98173827 56.32905882 -23 57 C-20.49557138 58.13786328 -18.36622871 59.24410642 -16.0625 60.6875 C-15.20881836 61.19700195 -15.20881836 61.19700195 -14.33789062 61.71679688 C-12.5463513 62.79252475 -10.77196757 63.89234582 -9 65 C-8.2663623 65.45713379 -7.53272461 65.91426758 -6.77685547 66.38525391 C-4.84976021 67.58783261 -2.9242018 68.79279878 -1 70 C-1.03029297 69.2972998 -1.06058594 68.59459961 -1.09179688 67.87060547 C-2.05723989 45.03045158 -2.60430155 22.74113319 0 0 Z " fill="#C9303F" transform="translate(73,11)"/>
<path d="M0 0 C1.47107208 0.00033989 1.47107208 0.00033989 2.97186279 0.00068665 C4.02303284 0.0161705 5.07420288 0.03165436 6.15722656 0.04760742 C7.23917297 0.05185226 8.32111938 0.05609711 9.43585205 0.06047058 C12.89010546 0.07725772 16.3437746 0.1149109 19.79785156 0.15307617 C22.14029105 0.16812292 24.48273969 0.18181134 26.82519531 0.1940918 C32.56627994 0.22716137 38.30702401 0.27736151 44.04785156 0.34057617 C44.70785156 1.66057617 45.36785156 2.98057617 46.04785156 4.34057617 C38.12785156 4.34057617 30.20785156 4.34057617 22.04785156 4.34057617 C22.04785156 4.01057617 22.04785156 3.68057617 22.04785156 3.34057617 C21.21535889 3.34057617 20.38286621 3.34057617 19.52514648 3.34057617 C10.03271484 3.34057617 0.5402832 3.34057617 -8.95214844 3.34057617 C-5.89761367 0.66869916 -4.04118331 -0.03124626 0 0 Z " fill="#FDBCD2" transform="translate(27.9521484375,5.659423828125)"/>
<path d="M0 0 C7.0964759 10.64471385 3.79036747 27.91331325 3 40 C4.98 39.505 4.98 39.505 7 39 C7 39.66 7 40.32 7 41 C5.02 41.66 3.04 42.32 1 43 C0.22478329 40.25104407 -0.12278847 37.81884931 -0.11352539 34.96582031 C-0.11344986 34.18531311 -0.11337433 33.40480591 -0.11329651 32.60064697 C-0.10813522 31.76821472 -0.10297394 30.93578247 -0.09765625 30.078125 C-0.0962413 29.21813904 -0.09482635 28.35815308 -0.09336853 27.47210693 C-0.08778097 24.73136891 -0.07523075 21.99071324 -0.0625 19.25 C-0.05748339 17.3893241 -0.05292077 15.52864691 -0.04882812 13.66796875 C-0.03781561 9.11194754 -0.02055951 4.55598772 0 0 Z " fill="#DF2D39" transform="translate(19,40)"/>
<path d="M0 0 C2.51134871 1.11552581 4.63065807 2.19489973 6.9375 3.625 C7.84556396 4.16543945 7.84556396 4.16543945 8.77197266 4.71679688 C13.40392208 7.51653095 17.81199711 10.56635788 22 14 C20.296875 14.67578125 20.296875 14.67578125 18 15 C15.640625 13.85546875 15.640625 13.85546875 13.25 12.1875 C12.45078125 11.64480469 11.6515625 11.10210937 10.828125 10.54296875 C10.22484375 10.03378906 9.6215625 9.52460937 9 9 C9 8.34 9 7.68 9 7 C7.68 6.67 6.36 6.34 5 6 C5 5.34 5 4.68 5 4 C1.04270612 2.68090204 -2.91442256 2.1617636 -7 3 C-10.19198041 4.61876049 -13.16612807 6.42363485 -16.16796875 8.37109375 C-18.88719954 9.93512029 -20.91587804 10.59968435 -24 11 C-21.25897289 7.85179133 -17.81397548 5.8914857 -14.25 3.8125 C-13.35667969 3.26045898 -13.35667969 3.26045898 -12.4453125 2.69726562 C-8.10282363 0.16414712 -4.98214157 -0.66540387 0 0 Z " fill="#D4252F" transform="translate(50,68)"/>
<path d="M0 0 C0.66 0 1.32 0 2 0 C2 14.52 2 29.04 2 44 C0.68 44 -0.64 44 -2 44 C-2.33 42.68 -2.66 41.36 -3 40 C-2.01 40 -1.02 40 0 40 C0 26.8 0 13.6 0 0 Z " fill="#B12C31" transform="translate(73,43)"/>
<path d="M0 0 C0.33 8.91 0.66 17.82 1 27 C0.34 27.33 -0.32 27.66 -1 28 C-3.06189931 22.08218663 -3.24167838 16.79581786 -3.125 10.5625 C-3.11597656 9.64017578 -3.10695313 8.71785156 -3.09765625 7.76757812 C-3.0742766 5.51144191 -3.04150916 3.25586316 -3 1 C-1 0 -1 0 0 0 Z " fill="#F96D81" transform="translate(22,9)"/>
<path d="M0 0 C0.66 0 1.32 0 2 0 C2.44751509 12.01660888 1.15622741 23.19208801 -1 35 C-1.33 35 -1.66 35 -2 35 C-2.35640731 23.2187584 -1.25940704 11.69975746 0 0 Z " fill="#D2445A" transform="translate(73,11)"/>
<path d="M0 0 C0.33 0 0.66 0 1 0 C1 22.11 1 44.22 1 67 C0.67 67 0.34 67 0 67 C0 44.89 0 22.78 0 0 Z " fill="#B72D35" transform="translate(76,20)"/>
<path d="M0 0 C0.33 0 0.66 0 1 0 C1 20.13 1 40.26 1 61 C0.67 61 0.34 61 0 61 C0 40.87 0 20.74 0 0 Z " fill="#F04C5B" transform="translate(17,9)"/>
<path d="M0 0 C16.17 0 32.34 0 49 0 C49 0.33 49 0.66 49 1 C32.83 1 16.66 1 0 1 C0 0.67 0 0.34 0 0 Z " fill="#FDCBDE" transform="translate(23,4)"/>
<path d="M0 0 C3.30297573 6.50880512 4.28977703 11.75557431 4 19 C3.34 19 2.68 19 2 19 C0.26044666 12.56986533 -0.24991456 6.65050424 0 0 Z " fill="#F24B60" transform="translate(19,30)"/>
<path d="M0 0 C4.1970092 -0.35281338 6.06522073 0.35814568 9.3125 3 C10.00988281 3.556875 10.70726563 4.11375 11.42578125 4.6875 C11.94527344 5.120625 12.46476562 5.55375 13 6 C11.296875 6.6796875 11.296875 6.6796875 9 7 C6.640625 5.8203125 6.640625 5.8203125 4.25 4.125 C3.45078125 3.57070312 2.6515625 3.01640625 1.828125 2.4453125 C1.22484375 1.96835938 0.6215625 1.49140625 0 1 C0 0.67 0 0.34 0 0 Z " fill="#CB222A" transform="translate(59,76)"/>
<path d="M0 0 C0 4.95 0 9.9 0 15 C-2.76491282 9.47017435 -3.09858498 7.11226863 -3 1 C-1 0 -1 0 0 0 Z " fill="#FC93A6" transform="translate(22,9)"/>
<path d="M0 0 C0.66 0.33 1.32 0.66 2 1 C0.95199219 1.59748047 0.95199219 1.59748047 -0.1171875 2.20703125 C-1.02726562 2.73683594 -1.93734375 3.26664062 -2.875 3.8125 C-3.77992187 4.33457031 -4.68484375 4.85664062 -5.6171875 5.39453125 C-8.23273183 6.93733799 -8.23273183 6.93733799 -10 10 C-10.99 10 -11.98 10 -13 10 C-12.67 8.68 -12.34 7.36 -12 6 C-10.35 5.67 -8.7 5.34 -7 5 C-7 4.34 -7 3.68 -7 3 C-4.69631264 1.93347808 -2.35981813 0.93578995 0 0 Z " fill="#B11A1E" transform="translate(33,76)"/>
<path d="M0 0 C0.66 0.33 1.32 0.66 2 1 C2 1.99 2 2.98 2 4 C0.14375 3.7215625 0.14375 3.7215625 -1.75 3.4375 C-4.76279577 3.05288777 -7.10010827 2.9125406 -10 4 C-10 3.34 -10 2.68 -10 2 C-6.33134759 -0.44576827 -4.32799657 -0.23607254 0 0 Z " fill="#8A2F2A" transform="translate(51,72)"/>
<path d="M0 0 C8.57142857 -0.28571429 8.57142857 -0.28571429 12 2 C12 2.66 12 3.32 12 4 C13.32 4.66 14.64 5.32 16 6 C14.02 6 12.04 6 10 6 C10 5.01 10 4.02 10 3 C6.7 2.34 3.4 1.68 0 1 C0 0.67 0 0.34 0 0 Z " fill="#B5191E" transform="translate(43,70)"/>
<path d="M0 0 C1.32 0.66 2.64 1.32 4 2 C3.01 2.495 3.01 2.495 2 3 C1.53348793 5.12576782 1.53348793 5.12576782 1.375 7.5625 C1.30023438 8.38878906 1.22546875 9.21507812 1.1484375 10.06640625 C1.09945312 10.70449219 1.05046875 11.34257812 1 12 C0.34 11.67 -0.32 11.34 -1 11 C-1.02688151 9.35425434 -1.04634123 7.70838587 -1.0625 6.0625 C-1.07410156 5.14597656 -1.08570312 4.22945312 -1.09765625 3.28515625 C-1 1 -1 1 0 0 Z " fill="#F37593" transform="translate(71,9)"/>
<path d="M0 0 C0.33 0 0.66 0 1 0 C1 4.29 1 8.58 1 13 C0.01 13 -0.98 13 -2 13 C-2.33 11.68 -2.66 10.36 -3 9 C-2.01 9 -1.02 9 0 9 C0 6.03 0 3.06 0 0 Z " fill="#B02025" transform="translate(73,74)"/>
<path d="M0 0 C4 1 4 1 4 1 Z " fill="#852A25" transform="translate(70,89)"/>
<path d="M0 0 C4 1 4 1 4 1 Z " fill="#7A1916" transform="translate(45,75)"/>
<path d="M0 0 C2 1 2 1 2 1 Z " fill="#892F29" transform="translate(22,88)"/>
<path d="M0 0 C2 1 2 1 2 1 Z " fill="#862D28" transform="translate(67,87)"/>
<path d="M0 0 C2 1 2 1 2 1 Z " fill="#8A312A" transform="translate(24,87)"/>
<path d="M0 0 C2 1 2 1 2 1 Z " fill="#8B3C35" transform="translate(65,86)"/>
<path d="" fill="#862221" transform="translate(0,0)"/>
<path d="M0 0 C2 1 2 1 2 1 Z " fill="#88352E" transform="translate(62,84)"/>
<path d="M0 0 C2 1 2 1 2 1 Z " fill="#89312A" transform="translate(29,84)"/>
<path d="M0 0 C2 1 2 1 2 1 Z " fill="#832E28" transform="translate(59,82)"/>
<path d="M0 0 C2 1 2 1 2 1 Z " fill="#82201C" transform="translate(32,82)"/>
<path d="M0 0 C2 1 2 1 2 1 Z " fill="#873731" transform="translate(57,81)"/>
<path d="M0 0 C2 1 2 1 2 1 Z " fill="#892F29" transform="translate(34,81)"/>
<path d="M0 0 C2 1 2 1 2 1 Z " fill="#89332D" transform="translate(39,78)"/>
<path d="M0 0 C2 1 2 1 2 1 Z " fill="#7E231E" transform="translate(51,77)"/>
<path d="M0 0 C2 1 2 1 2 1 Z " fill="#873731" transform="translate(49,76)"/>
<path d="M0 0 C2 1 2 1 2 1 Z " fill="#801B18" transform="translate(42,76)"/>
<path d="" fill="#E991AF" transform="translate(0,0)"/>
<path d="M0 0 C2 1 2 1 2 1 Z " fill="#FEB3C8" transform="translate(21,5)"/>
<path d="" fill="#8C4039" transform="translate(0,0)"/>
<path d="" fill="#8B3A33" transform="translate(0,0)"/>
<path d="" fill="#892622" transform="translate(0,0)"/>
<path d="" fill="#812C28" transform="translate(0,0)"/>
<path d="" fill="#8A332B" transform="translate(0,0)"/>
<path d="" fill="#8D4138" transform="translate(0,0)"/>
<path d="" fill="#8F3E37" transform="translate(0,0)"/>
<path d="" fill="#87362F" transform="translate(0,0)"/>
<path d="" fill="#8A342D" transform="translate(0,0)"/>
<path d="" fill="#8B4038" transform="translate(0,0)"/>
<path d="" fill="#8B3730" transform="translate(0,0)"/>
<path d="" fill="#832D27" transform="translate(0,0)"/>
<path d="" fill="#85312A" transform="translate(0,0)"/>
<path d="" fill="#893730" transform="translate(0,0)"/>
<path d="" fill="#FFD1DB" transform="translate(0,0)"/>
<path d="" fill="#F4AAC7" transform="translate(0,0)"/>
<path d="" fill="#FF9CB4" transform="translate(0,0)"/>
<path d="" fill="#F4AEC8" transform="translate(0,0)"/>
<path d="" fill="#FEC7D4" transform="translate(0,0)"/>
<path d="" fill="#F9B6D0" transform="translate(0,0)"/>
</svg>
