<?xml version="1.0" encoding="UTF-8"?>
<svg version="1.1" xmlns="http://www.w3.org/2000/svg" width="94" height="94">
<path d="M0 0 C6.20915291 4.96228447 10.78924367 11.69235214 12.8125 19.375 C13.55811033 27.25592781 13.66517558 34.49218093 9.78515625 41.54296875 C8.66610483 43.65074031 7.99966802 44.97628701 7.8125 47.375 C9.56718455 49.74285082 9.56718455 49.74285082 12.125 52 C13.49011719 53.30710937 13.49011719 53.30710937 14.8828125 54.640625 C15.85798003 55.55357566 16.83456117 56.46501854 17.8125 57.375 C19.72302415 59.15276105 21.61475582 60.94486535 23.5 62.75 C24.34949219 63.54148437 25.19898437 64.33296875 26.07421875 65.1484375 C27.8125 67.375 27.8125 67.375 27.6953125 69.51953125 C26.46322532 72.10909502 25.08023022 73.62560812 22.8125 75.375 C18.85894648 75.10041873 16.94456719 72.85433882 14.265625 70.12109375 C13.42128906 69.26708984 12.57695313 68.41308594 11.70703125 67.53320312 C10.83433594 66.63537109 9.96164063 65.73753906 9.0625 64.8125 C8.17433594 63.91080078 7.28617188 63.00910156 6.37109375 62.08007812 C4.17801685 59.85162902 1.99223956 57.61648407 -0.1875 55.375 C-3.69860908 56.77374187 -3.69860908 56.77374187 -7.1875 58.2265625 C-16.01964896 61.6421201 -24.80984569 61.65450238 -33.625 58.1875 C-42.86725486 53.80895144 -47.03415308 47.95505699 -52.1875 39.375 C-52.8475 38.385 -53.5075 37.395 -54.1875 36.375 C-54.5175 36.375 -54.8475 36.375 -55.1875 36.375 C-55.1875 30.105 -55.1875 23.835 -55.1875 17.375 C-54.5275 17.375 -53.8675 17.375 -53.1875 17.375 C-52.919375 16.7459375 -52.65125 16.116875 -52.375 15.46875 C-47.56185404 4.95582593 -40.96386736 -1.3547728 -30.1875 -5.625 C-19.40719713 -9.00196235 -9.07759494 -6.13303919 0 0 Z " fill="#049DE8" transform="translate(59.1875,11.625)"/>
<path d="M0 0 C6.20915291 4.96228447 10.78924367 11.69235214 12.8125 19.375 C13.55811033 27.25592781 13.66517558 34.49218093 9.78515625 41.54296875 C8.66610483 43.65074031 7.99966802 44.97628701 7.8125 47.375 C9.56718455 49.74285082 9.56718455 49.74285082 12.125 52 C13.49011719 53.30710937 13.49011719 53.30710937 14.8828125 54.640625 C15.85798003 55.55357566 16.83456117 56.46501854 17.8125 57.375 C19.72302415 59.15276105 21.61475582 60.94486535 23.5 62.75 C24.34949219 63.54148437 25.19898437 64.33296875 26.07421875 65.1484375 C27.8125 67.375 27.8125 67.375 27.6953125 69.51953125 C26.46322532 72.10909502 25.08023022 73.62560812 22.8125 75.375 C18.85894648 75.10041873 16.94456719 72.85433882 14.265625 70.12109375 C13.42128906 69.26708984 12.57695313 68.41308594 11.70703125 67.53320312 C10.83433594 66.63537109 9.96164063 65.73753906 9.0625 64.8125 C8.17433594 63.91080078 7.28617188 63.00910156 6.37109375 62.08007812 C4.17801685 59.85162902 1.99223956 57.61648407 -0.1875 55.375 C-3.69860908 56.77374187 -3.69860908 56.77374187 -7.1875 58.2265625 C-16.01964896 61.6421201 -24.80984569 61.65450238 -33.625 58.1875 C-42.86725486 53.80895144 -47.03415308 47.95505699 -52.1875 39.375 C-52.8475 38.385 -53.5075 37.395 -54.1875 36.375 C-54.5175 36.375 -54.8475 36.375 -55.1875 36.375 C-55.1875 30.105 -55.1875 23.835 -55.1875 17.375 C-54.5275 17.375 -53.8675 17.375 -53.1875 17.375 C-52.919375 16.7459375 -52.65125 16.116875 -52.375 15.46875 C-47.56185404 4.95582593 -40.96386736 -1.3547728 -30.1875 -5.625 C-19.40719713 -9.00196235 -9.07759494 -6.13303919 0 0 Z M-43.65234375 6.4140625 C-49.5695229 13.97239312 -52.29704051 21.76911501 -51.1875 31.375 C-48.29261656 41.33459898 -43.0900147 49.55859256 -33.8984375 54.640625 C-26.5734284 57.94269259 -19.73575994 58.78518353 -12 56.38671875 C-2.08947485 52.46380254 2.9534943 47.79941589 7.8125 38.375 C10.80987708 30.8815573 10.97414604 22.78704903 8.25 15.1875 C4.10510255 6.08894461 -1.93778181 0.98502402 -11.1875 -2.625 C-23.49994016 -6.5118192 -35.07531135 -2.87265344 -43.65234375 6.4140625 Z " fill="#5BBAE1" transform="translate(59.1875,11.625)"/>
<path d="M0 0 C2.9375 2.5625 2.9375 2.5625 5 5 C5.78503906 5.90298828 5.78503906 5.90298828 6.5859375 6.82421875 C8.27025961 9.41584145 8.48593958 11.18628166 8.6875 14.25 C8.78611328 15.58804687 8.78611328 15.58804687 8.88671875 16.953125 C8.94279297 17.96632813 8.94279297 17.96632813 9 19 C8.34 18.319375 7.68 17.63875 7 16.9375 C6.00338791 15.95488527 5.0029363 14.97615887 4 14 C3.40703125 13.41089844 2.8140625 12.82179688 2.203125 12.21484375 C-4.83578861 5.58418713 -11.63885434 3.36126528 -21.296875 3.64453125 C-27.14700737 4.41384057 -31.90566874 7.34502525 -36.9375 10.25 C-40 12 -40 12 -42 12 C-42.08543625 8.58254983 -41.45632525 6.53966304 -39.24609375 3.92578125 C-28.1161417 -6.5460519 -13.02299574 -8.90918961 0 0 Z " fill="#5EECF3" transform="translate(56,15)"/>
<path d="M0 0 C4.5785132 3.63670091 7.90956126 8.33114393 10.8125 13.375 C10.8125 14.035 10.8125 14.695 10.8125 15.375 C8.98046875 15.13671875 8.98046875 15.13671875 6.8125 14.375 C5.42578125 12.51953125 5.42578125 12.51953125 4.125 10.1875 C0.21561267 3.98776453 -4.77023269 0.82076694 -11.4375 -2 C-20.14321843 -3.45095307 -28.06472392 -3.80726009 -35.90234375 0.69140625 C-41.23742783 4.62204085 -45.33659059 9.57342651 -48.5 15.375 C-50.1875 18.375 -50.1875 18.375 -53.1875 19.375 C-50.86287325 9.76654275 -45.31591919 2.84510238 -37.0625 -2.625 C-24.62687231 -9.52555419 -11.4819502 -7.75747883 0 0 Z " fill="#F5FCFC" transform="translate(59.1875,11.625)"/>
<path d="M0 0 C7.56290077 4.87386939 11.20520818 11.61562453 14 20 C14.85414297 30.01975406 12.99356668 37.93968619 7 46 C7 42.77068569 7.46838418 42.01941824 9 39.3125 C12.27767276 32.17185578 12.36316954 22.91324207 10.26953125 15.3671875 C6.90846242 8.15117851 0.83409004 3.71728747 -6 0 C-13.11967457 -2.37322486 -21.95901118 -1.837855 -28.9375 0.89453125 C-35.4810167 4.40175706 -39.9097425 9.32504379 -43 16 C-45.08103388 24.46287113 -44.18482514 32.67035415 -42 41 C-44.61093545 39.69453228 -44.68996636 38.72009785 -45.625 36 C-48.12611019 27.9351957 -47.62136281 20.65115001 -44 13 C-39.86875593 6.1646689 -33.78805151 -0.66092018 -26.1328125 -3.52734375 C-17.09057759 -5.531209 -8.15334922 -4.28655021 0 0 Z " fill="#1879C8" transform="translate(55,12)"/>
<path d="M0 0 C0.66 0.66 1.32 1.32 2 2 C2.99 1.67 3.98 1.34 5 1 C4.95359375 1.82242187 4.9071875 2.64484375 4.859375 3.4921875 C4.5252025 13.82766556 6.50112605 21.78083589 13 30 C14.92931274 31.78168722 16.93201233 33.37200971 19 35 C20.875 36.6875 20.875 36.6875 22 38 C22 38.66 22 39.32 22 40 C11.84945386 37.34152363 8.12148252 30.52700439 3 22 C2.34 21.01 1.68 20.02 1 19 C0.67 19 0.34 19 0 19 C0 12.73 0 6.46 0 0 Z " fill="#4AC0EB" transform="translate(4,29)"/>
<path d="M0 0 C4.3079127 0.46977238 6.2050833 2.9982115 9.0625 6.0625 C11.5543937 8.80541582 11.5543937 8.80541582 14 11 C14.99 11 15.98 11 17 11 C18.33981486 11.3062434 19.67511887 11.63451555 21 12 C19.7251791 14.84383123 18.54862922 17.13754018 16 19 C12.56689423 18.58441819 10.91863573 17.27748672 8.546875 14.83984375 C7.928125 14.21142578 7.309375 13.58300781 6.671875 12.93554688 C6.03765625 12.27619141 5.4034375 11.61683594 4.75 10.9375 C4.1003125 10.27427734 3.450625 9.61105469 2.78125 8.92773438 C1.1805324 7.29170683 -0.41276193 5.64909088 -2 4 C-1.34 2.68 -0.68 1.36 0 0 Z " fill="#1480C8" transform="translate(66,68)"/>
<path d="M0 0 C0.69738281 0.00902344 1.39476563 0.01804687 2.11328125 0.02734375 C3.82566958 0.05080112 5.53788004 0.08666896 7.25 0.125 C7.91 1.445 8.57 2.765 9.25 4.125 C8.26 4.23457031 7.27 4.34414063 6.25 4.45703125 C-3.74482596 5.62663854 -11.76700644 6.71334801 -19.3046875 13.91796875 C-20.75 15.125 -20.75 15.125 -22.75 15.125 C-21.39848129 10.96145043 -19.68130608 8.77696884 -16.375 5.9375 C-15.60414062 5.26332031 -14.83328125 4.58914062 -14.0390625 3.89453125 C-9.33830754 0.26067118 -5.88880959 -0.14471555 0 0 Z " fill="#8BEDF7" transform="translate(36.75,11.875)"/>
<path d="M0 0 C0.33 0.66 0.66 1.32 1 2 C3.01669827 3.13350534 3.01669827 3.13350534 5 4 C5 4.99 5 5.98 5 7 C5.99 7.33 6.98 7.66 8 8 C8.67605608 9.32859716 9.34082384 10.66294764 10 12 C11.49377563 13.62859293 13.03988064 15.21016976 14.625 16.75 C15.85089844 17.94882813 15.85089844 17.94882813 17.1015625 19.171875 C17.72804688 19.77515625 18.35453125 20.3784375 19 21 C16 21 16 21 13.66015625 18.77734375 C11.92827303 16.88399172 10.19910317 14.98815416 8.47265625 13.08984375 C7.65667969 12.40019531 6.84070313 11.71054688 6 11 C3.85975497 11.08050599 3.85975497 11.08050599 2 12 C1.01 12 0.02 12 -1 12 C-3.1875 9.5 -3.1875 9.5 -5 7 C-4.54625 6.5875 -4.0925 6.175 -3.625 5.75 C-1.94049626 3.93591905 -1.00734029 2.24714373 0 0 Z " fill="#2BA8E1" transform="translate(63,58)"/>
<path d="M0 0 C0.66 0.33 1.32 0.66 2 1 C1.06079055 3.33116601 0.46843842 4.71271969 -1.70703125 6.046875 C-10.43321561 8.96099965 -19.34646227 9.25642874 -28 6 C-28 5.01 -28 4.02 -28 3 C-28.99 2.67 -29.98 2.34 -31 2 C-30.34 1.67 -29.68 1.34 -29 1 C-27.865625 1.474375 -26.73125 1.94875 -25.5625 2.4375 C-18.34384936 5.25708144 -11.54361473 4.89069054 -4.4375 1.9375 C-3.63183594 1.55464844 -2.82617188 1.17179687 -1.99609375 0.77734375 C-1.33738281 0.52082031 -0.67867187 0.26429687 0 0 Z " fill="#4EC5ED" transform="translate(54,64)"/>
<path d="M0 0 C19.14694754 -0.98922232 19.14694754 -0.98922232 26 5 C29.95403018 8.86062789 33.51544253 13.03088506 36 18 C36 18.66 36 19.32 36 20 C34.16796875 19.76171875 34.16796875 19.76171875 32 19 C30.61328125 17.14453125 30.61328125 17.14453125 29.3125 14.8125 C25.38600905 8.58564061 20.37663317 5.28925994 13.5625 2.6875 C9.05880931 1.81836671 4.57066555 1.34946739 0 1 C0 0.67 0 0.34 0 0 Z " fill="#C4F1F6" transform="translate(34,7)"/>
<path d="M0 0 C0 0.99 0 1.98 0 3 C-3.22543513 2.47976853 -6.08710815 1.59375327 -9.125 0.4375 C-16.28185144 -1.96396842 -23.07391262 -2.15946518 -30 1 C-30.70125 1.37125 -31.4025 1.7425 -32.125 2.125 C-34 3 -34 3 -37 3 C-28.52743173 -5.19014932 -9.14144787 -9.14144787 0 0 Z " fill="#83EDF6" transform="translate(57,20)"/>
<path d="M0 0 C4.25231455 3.69279948 5.91390803 6.47080453 7 12 C7.125 14.9375 7.125 14.9375 7 17 C3.40365256 13.50640535 0.16548033 9.88901869 -3 6 C-2.34 6 -1.68 6 -1 6 C-1.20625 5.38125 -1.4125 4.7625 -1.625 4.125 C-1.74875 3.42375 -1.8725 2.7225 -2 2 C-1.34 1.34 -0.68 0.68 0 0 Z " fill="#4AD9F2" transform="translate(58,17)"/>
<path d="M0 0 C0.66 0.66 1.32 1.32 2 2 C2.99 1.67 3.98 1.34 5 1 C4.98839844 1.85722656 4.97679687 2.71445312 4.96484375 3.59765625 C4.9181959 9.50860552 4.91750084 15.18156704 6 21 C4.5 19.6875 4.5 19.6875 3 18 C3 17.01 3 16.02 3 15 C2.34 15 1.68 15 1 15 C0.67 16.32 0.34 17.64 0 19 C0 12.73 0 6.46 0 0 Z " fill="#57C3E7" transform="translate(4,29)"/>
<path d="M0 0 C2.97640913 1.14477274 4.78692669 2.72161484 6.9375 5 C9.44375613 7.59463796 11.47622326 8.97995936 15 10 C15.680625 10.226875 16.36125 10.45375 17.0625 10.6875 C19.31516307 11.05083275 20.84455421 10.69282186 23 10 C21.35 11.98 19.7 13.96 18 16 C14.58987203 15.41764645 12.95718539 14.32513888 10.546875 11.875 C9.928125 11.25109375 9.309375 10.6271875 8.671875 9.984375 C8.03765625 9.32953125 7.4034375 8.6746875 6.75 8 C6.1003125 7.34515625 5.450625 6.6903125 4.78125 6.015625 C0 1.15401786 0 1.15401786 0 0 Z " fill="#2565A2" transform="translate(64,71)"/>
<path d="M0 0 C5.11790246 1.30574051 7.7614885 3.31616356 11.375 7.125 C12.24898437 8.03507812 13.12296875 8.94515625 14.0234375 9.8828125 C14.67570312 10.58148438 15.32796875 11.28015625 16 12 C14.02 12.99 14.02 12.99 12 14 C10.85807217 12.85807217 9.71677615 11.71550762 8.578125 10.5703125 C7.43198823 9.42984968 6.27413185 8.30112694 5.109375 7.1796875 C4.47515625 6.56351562 3.8409375 5.94734375 3.1875 5.3125 C2.58292969 4.73113281 1.97835937 4.14976563 1.35546875 3.55078125 C0 2 0 2 0 0 Z " fill="#59AEE4" transform="translate(71,67)"/>
<path d="M0 0 C3.63 0 7.26 0 11 0 C11.66 1.32 12.32 2.64 13 4 C4.585 4.495 4.585 4.495 -4 5 C-4 4.34 -4 3.68 -4 3 C-3.01 2.67 -2.02 2.34 -1 2 C-0.67 1.34 -0.34 0.68 0 0 Z " fill="#9AF1F9" transform="translate(33,12)"/>
<path d="M0 0 C0.515625 0.680625 1.03125 1.36125 1.5625 2.0625 C4.50071413 5.60342473 7.70787019 8.79109819 11 12 C9.1015625 12.57421875 9.1015625 12.57421875 7 13 C4.98001724 11.52385875 4.08952576 10.18464687 3 7.9375 C2.02674942 5.66757845 2.02674942 5.66757845 -1 4 C-1.6496875 5.1446875 -1.6496875 5.1446875 -2.3125 6.3125 C-3.74489792 8.59372631 -4.93762473 10.29629869 -7 12 C-7.66 12 -8.32 12 -9 12 C-7.60090738 7.54834166 -5.39864635 5.14374788 -2 2 C-1.34 1.34 -0.68 0.68 0 0 Z " fill="#44C0ED" transform="translate(64,55)"/>
<path d="M0 0 C-2.97933262 6.24241121 -6.7903685 12.39147983 -12 17 C-12.33 16.34 -12.66 15.68 -13 15 C-10.8037679 9.09108982 -7.1946847 0 0 0 Z " fill="#B9EFFA" transform="translate(19,14)"/>
<path d="M0 0 C0.66 0.33 1.32 0.66 2 1 C0.90751403 2.50852857 -0.19938499 4.00662831 -1.3125 5.5 C-1.92738281 6.3353125 -2.54226562 7.170625 -3.17578125 8.03125 C-3.77777344 8.6809375 -4.37976563 9.330625 -5 10 C-5.99 10 -6.98 10 -8 10 C-9.33981486 10.3062434 -10.67511887 10.63451555 -12 11 C-12.125 8.125 -12.125 8.125 -12 5 C-11.34 4.34 -10.68 3.68 -10 3 C-10 3.99 -10 4.98 -10 6 C-8.51969728 5.18957164 -7.04078858 4.37659652 -5.5625 3.5625 C-4.73878906 3.11003906 -3.91507813 2.65757813 -3.06640625 2.19140625 C-1.07691202 1.16337603 -1.07691202 1.16337603 0 0 Z " fill="#18C9EA" transform="translate(24,21)"/>
<path d="M0 0 C1.93746094 -0.02513672 1.93746094 -0.02513672 3.9140625 -0.05078125 C7.47532468 0.32303069 8.83789477 0.87198507 11.375 3.3125 C10.446875 3.1475 9.51875 2.9825 8.5625 2.8125 C0.40751247 1.70869361 -6.3401588 1.5146429 -13.75 5.4375 C-15.625 6.3125 -15.625 6.3125 -18.625 6.3125 C-12.78401326 1.15868817 -7.71328127 0.02318622 0 0 Z " fill="#50E2EF" transform="translate(38.625,16.6875)"/>
<path d="M0 0 C2.28280275 2.85846605 3.89739038 5.68750192 5.4375 9 C7.21835325 12.669637 8.9224974 15.26444213 12 18 C12 18.66 12 19.32 12 20 C6.24411279 17.80183557 3.72593548 12.22231849 1 7 C0.26470368 4.5034125 0.05814679 2.61660561 0 0 Z " fill="#5CAECB" transform="translate(6,44)"/>
<path d="M0 0 C1.32 0.33 2.64 0.66 4 1 C5.32528788 7.09632423 4.46619907 11.97767819 3 18 C2.67 18 2.34 18 2 18 C1.93941406 17.11957031 1.87882812 16.23914063 1.81640625 15.33203125 C1.73261719 14.17058594 1.64882812 13.00914063 1.5625 11.8125 C1.48128906 10.66394531 1.40007812 9.51539063 1.31640625 8.33203125 C1.04596188 5.48401829 0.62478253 2.78789518 0 0 Z " fill="#5DD1F2" transform="translate(67,27)"/>
<path d="M0 0 C3.27742098 3.10026309 5.93104837 5.97098894 8 10 C8 10.66 8 11.32 8 12 C6.203125 11.81640625 6.203125 11.81640625 4 11 C2.296875 8.71484375 2.296875 8.71484375 0.75 5.9375 C-0.03117187 4.55884766 -0.03117187 4.55884766 -0.828125 3.15234375 C-1.40820312 2.08693359 -1.40820312 2.08693359 -2 1 C-1.34 0.67 -0.68 0.34 0 0 Z " fill="#9CE4F7" transform="translate(62,15)"/>
<path d="M0 0 C1.875 0.671875 1.875 0.671875 4 1.75 C4.70125 2.09546875 5.4025 2.4409375 6.125 2.796875 C8 4 8 4 10 7 C8.3125 7.8125 8.3125 7.8125 6 8 C3.4375 5.6875 3.4375 5.6875 1 3 C0.01 2.34 -0.98 1.68 -2 1 C-1.34 0.67 -0.68 0.34 0 0 Z " fill="#50E7F1" transform="translate(48,11)"/>
<path d="M0 0 C-2.52235132 1.68156755 -5.03586642 3.16468006 -7.6875 4.625 C-8.89986328 5.29402344 -8.89986328 5.29402344 -10.13671875 5.9765625 C-10.75160156 6.31429688 -11.36648437 6.65203125 -12 7 C-12.66 6.34 -13.32 5.68 -14 5 C-9.10703712 1.00574458 -6.55344817 -0.6687192 0 0 Z " fill="#DAF6FA" transform="translate(31,8)"/>
<path d="M0 0 C0.66 0.66 1.32 1.32 2 2 C2.99 1.67 3.98 1.34 5 1 C4.67 5.29 4.34 9.58 4 14 C3.67 14 3.34 14 3 14 C2.814375 12.6078125 2.814375 12.6078125 2.625 11.1875 C2.18466918 7.86074765 2.18466918 7.86074765 0 5 C-0.125 2.3125 -0.125 2.3125 0 0 Z " fill="#73DAF5" transform="translate(4,29)"/>
<path d="M0 0 C0.33 1.32 0.66 2.64 1 4 C2.65 3.34 4.3 2.68 6 2 C4.63016497 5.16115776 4.0109362 5.9927092 1 8 C0.26656572 11.06556598 0.26656572 11.06556598 0 14 C-0.33 14 -0.66 14 -1 14 C-1.18451025 4.58997722 -1.18451025 4.58997722 0 0 Z " fill="#02B6E9" transform="translate(11,28)"/>
<path d="M0 0 C0.33 0 0.66 0 1 0 C1.49230769 7.38461538 1.49230769 7.38461538 -1 10.5 C-1.66 10.995 -2.32 11.49 -3 12 C-3.88336837 9.5332355 -4.1312406 8.36140628 -3.22265625 5.859375 C-2.83980469 5.16328125 -2.45695312 4.4671875 -2.0625 3.75 C-1.68222656 3.04359375 -1.30195312 2.3371875 -0.91015625 1.609375 C-0.60980469 1.07828125 -0.30945313 0.5471875 0 0 Z " fill="#48BDEA" transform="translate(68,46)"/>
<path d="M0 0 C2.74097805 2.74097805 2.98573859 4.50997793 3.09765625 8.35546875 C3.08605469 9.62003906 3.07445313 10.88460937 3.0625 12.1875 C3.05347656 13.45980469 3.04445313 14.73210938 3.03515625 16.04296875 C3.02355469 17.01878906 3.01195313 17.99460937 3 19 C2.67 19 2.34 19 2 19 C2 16.36 2 13.72 2 11 C1.34 11 0.68 11 0 11 C0 7.37 0 3.74 0 0 Z " fill="#0DBDEB" transform="translate(64,25)"/>
<path d="M0 0 C0.66 0.99 1.32 1.98 2 3 C1.34 3 0.68 3 0 3 C-0.93423645 6.01031744 -1.04449911 6.86650268 0 10 C0.66 10.66 1.32 11.32 2 12 C1.01 12 0.02 12 -1 12 C-3.1875 9.5 -3.1875 9.5 -5 7 C-4.54625 6.5875 -4.0925 6.175 -3.625 5.75 C-1.94049626 3.93591905 -1.00734029 2.24714373 0 0 Z " fill="#3BA8DB" transform="translate(63,58)"/>
<path d="M0 0 C7.48291572 6.15034169 7.48291572 6.15034169 10 10 C8.35 10 6.7 10 5 10 C5 9.34 5 8.68 5 8 C4.34 7.67 3.68 7.34 3 7 C0 2.5 0 2.5 0 0 Z " fill="#98D7F6" transform="translate(65,58)"/>
<path d="M0 0 C3.53586014 3.17320782 5.58578031 5.16743695 6 10 C5.62875 9.0409375 5.62875 9.0409375 5.25 8.0625 C4.2074709 5.81270124 4.2074709 5.81270124 2 5.4375 C1.34 5.293125 0.68 5.14875 0 5 C-0.66 4.01 -1.32 3.02 -2 2 C-1.34 1.34 -0.68 0.68 0 0 Z " fill="#33DCEF" transform="translate(58,17)"/>
<path d="M0 0 C2.5 1.3125 2.5 1.3125 5 3 C5 3.99 5 4.98 5 6 C0.25 5.125 0.25 5.125 -2 4 C-2 3.34 -2 2.68 -2 2 C-1.34 2 -0.68 2 0 2 C0 1.34 0 0.68 0 0 Z " fill="#71E7F5" transform="translate(52,17)"/>
<path d="M0 0 C3.375 0.25 3.375 0.25 7 1 C8.4375 3.0625 8.4375 3.0625 9 5 C5.12867972 4.42647107 2.91827204 2.51295648 0 0 Z " fill="#B1EDF8" transform="translate(53,11)"/>
<path d="M0 0 C0.66 0.33 1.32 0.66 2 1 C0.02 3.31 -1.96 5.62 -4 8 C-4.66 6.68 -5.32 5.36 -6 4 C-4.02 2.68 -2.04 1.36 0 0 Z " fill="#23D2EA" transform="translate(24,21)"/>
<path d="M0 0 C5.75 1.625 5.75 1.625 8 5 C3.48279689 5.36625971 3.48279689 5.36625971 1.1875 3.625 C0 2 0 2 0 0 Z " fill="#5AB8EA" transform="translate(71,67)"/>
<path d="M0 0 C3 2 3 2 3.6875 4.125 C3.790625 4.74375 3.89375 5.3625 4 6 C2.125 5.75 2.125 5.75 0 5 C-1.25 2.9375 -1.25 2.9375 -2 1 C-1.34 0.67 -0.68 0.34 0 0 Z " fill="#40BEEF" transform="translate(65,60)"/>
<path d="M0 0 C0.99 0 1.98 0 3 0 C1.55746343 3.36591866 -0.33264727 5.51047079 -3 8 C-2.25 2.25 -2.25 2.25 0 0 Z " fill="#AFE6F3" transform="translate(16,14)"/>
<path d="M0 0 C0.66 0 1.32 0 2 0 C2.33 0.99 2.66 1.98 3 3 C-0.75 6 -0.75 6 -3 6 C-1.125 1.125 -1.125 1.125 0 0 Z " fill="#7AE5F5" transform="translate(17,21)"/>
<path d="M0 0 C4.41889613 1.35021826 6.34345343 3.26115668 9 7 C6 7 6 7 3.375 4.625 C1 2 1 2 0 0 Z " fill="#218EC1" transform="translate(54,13)"/>
<path d="M0 0 C1.32 0.33 2.64 0.66 4 1 C4.33 2.65 4.66 4.3 5 6 C3.68 5.67 2.36 5.34 1 5 C0.67 3.35 0.34 1.7 0 0 Z " fill="#7FD3F0" transform="translate(67,27)"/>
<path d="M0 0 C0.99 0.66 1.98 1.32 3 2 C3 3.32 3 4.64 3 6 C-0.875 4.25 -0.875 4.25 -2 2 C-1.34 2 -0.68 2 0 2 C0 1.34 0 0.68 0 0 Z " fill="#59DFF2" transform="translate(57,21)"/>
<path d="M0 0 C0.33 0 0.66 0 1 0 C1 4.29 1 8.58 1 13 C0.67 13 0.34 13 0 13 C0 8.71 0 4.42 0 0 Z " fill="#54C3EA" transform="translate(73,32)"/>
<path d="M0 0 C3.96 0 7.92 0 12 0 C12 0.33 12 0.66 12 1 C8.04 1 4.08 1 0 1 C0 0.67 0 0.34 0 0 Z " fill="#4BC1E7" transform="translate(33,73)"/>
<path d="M0 0 C2.97 0 5.94 0 9 0 C9 0.33 9 0.66 9 1 C6.03 1 3.06 1 0 1 C0 0.67 0 0.34 0 0 Z " fill="#F7FDFD" transform="translate(34,3)"/>
<path d="M0 0 C0.33 0 0.66 0 1 0 C1 2.31 1 4.62 1 7 C0.67 7 0.34 7 0 7 C0 4.69 0 2.38 0 0 Z " fill="#5DC9E9" transform="translate(3,35)"/>
<path d="M0 0 C4 1 4 1 4 1 Z " fill="#4FC0E9" transform="translate(45,72)"/>
<path d="M0 0 C4 1 4 1 4 1 Z " fill="#F4FEFD" transform="translate(29,4)"/>
<path d="M0 0 C3 1 3 1 3 1 Z " fill="#265089" transform="translate(79,88)"/>
<path d="" fill="#799FC5" transform="translate(0,0)"/>
<path d="M0 0 C3 1 3 1 3 1 Z " fill="#46BBE3" transform="translate(29,72)"/>
<path d="M0 0 C3 1 3 1 3 1 Z " fill="#49BAE1" transform="translate(26,71)"/>
<path d="" fill="#54B9E0" transform="translate(0,0)"/>
<path d="" fill="#86D8F4" transform="translate(0,0)"/>
<path d="M0 0 C3 1 3 1 3 1 Z " fill="#DEFEFE" transform="translate(48,5)"/>
<path d="M0 0 C3 1 3 1 3 1 Z " fill="#E8FEFD" transform="translate(45,4)"/>
<path d="M0 0 C2 1 2 1 2 1 Z " fill="#2B32A4" transform="translate(83,86)"/>
<path d="" fill="#3036A7" transform="translate(0,0)"/>
<path d="M0 0 C2 1 2 1 2 1 Z " fill="#58C5E8" transform="translate(49,71)"/>
<path d="M0 0 C2 1 2 1 2 1 Z " fill="#5BC5E6" transform="translate(52,70)"/>
<path d="M0 0 C2 1 2 1 2 1 Z " fill="#30B2E2" transform="translate(24,70)"/>
<path d="M0 0 C2 1 2 1 2 1 Z " fill="#44B3DB" transform="translate(22,69)"/>
<path d="M0 0 C2 1 2 1 2 1 Z " fill="#39B9E7" transform="translate(55,68)"/>
<path d="M0 0 C2 1 2 1 2 1 Z " fill="#41AFDD" transform="translate(57,67)"/>
<path d="" fill="#33AFDD" transform="translate(0,0)"/>
<path d="" fill="#56BFE9" transform="translate(0,0)"/>
<path d="" fill="#27B5E4" transform="translate(0,0)"/>
<path d="" fill="#31AFEC" transform="translate(0,0)"/>
<path d="" fill="#4AAAD1" transform="translate(0,0)"/>
<path d="" fill="#52B7DE" transform="translate(0,0)"/>
<path d="" fill="#4DAFD4" transform="translate(0,0)"/>
<path d="" fill="#54B9DF" transform="translate(0,0)"/>
<path d="" fill="#4EB2D7" transform="translate(0,0)"/>
<path d="" fill="#B4F4FD" transform="translate(0,0)"/>
<path d="" fill="#92DEF7" transform="translate(0,0)"/>
<path d="" fill="#CAF9FE" transform="translate(0,0)"/>
<path d="" fill="#9BE2FA" transform="translate(0,0)"/>
<path d="" fill="#DDFCFE" transform="translate(0,0)"/>
<path d="" fill="#89DFF8" transform="translate(0,0)"/>
<path d="" fill="#CDFAFE" transform="translate(0,0)"/>
<path d="" fill="#9AE6FA" transform="translate(0,0)"/>
<path d="" fill="#E2FEFE" transform="translate(0,0)"/>
<path d="M0 0 C2 1 2 1 2 1 Z " fill="#ECFEFD" transform="translate(15,12)"/>
<path d="M0 0 C2 1 2 1 2 1 Z " fill="#BCF5FE" transform="translate(58,10)"/>
<path d="M0 0 C2 1 2 1 2 1 Z " fill="#EEFEFD" transform="translate(19,9)"/>
<path d="M0 0 C2 1 2 1 2 1 Z " fill="#CBFCFE" transform="translate(55,8)"/>
<path d="M0 0 C2 1 2 1 2 1 Z " fill="#FCFDFD" transform="translate(22,7)"/>
<path d="M0 0 C2 1 2 1 2 1 Z " fill="#D4FCFE" transform="translate(51,6)"/>
<path d="M0 0 C2 1 2 1 2 1 Z " fill="#FAFEFD" transform="translate(24,6)"/>
<path d="M0 0 C2 1 2 1 2 1 Z " fill="#FDFEFD" transform="translate(27,5)"/>
<path d="" fill="#00358D" transform="translate(0,0)"/>
<path d="" fill="#275792" transform="translate(0,0)"/>
<path d="" fill="#2C5A93" transform="translate(0,0)"/>
<path d="" fill="#6A6F78" transform="translate(0,0)"/>
<path d="" fill="#326096" transform="translate(0,0)"/>
<path d="" fill="#31649A" transform="translate(0,0)"/>
<path d="" fill="#33679D" transform="translate(0,0)"/>
<path d="" fill="#003798" transform="translate(0,0)"/>
<path d="" fill="#346A9E" transform="translate(0,0)"/>
<path d="" fill="#336DA2" transform="translate(0,0)"/>
<path d="" fill="#336FA3" transform="translate(0,0)"/>
<path d="" fill="#3271A6" transform="translate(0,0)"/>
<path d="" fill="#95CCF1" transform="translate(0,0)"/>
<path d="" fill="#3375A9" transform="translate(0,0)"/>
<path d="" fill="#85C2EB" transform="translate(0,0)"/>
<path d="" fill="#3376A9" transform="translate(0,0)"/>
<path d="" fill="#87C4ED" transform="translate(0,0)"/>
<path d="" fill="#3379AC" transform="translate(0,0)"/>
<path d="" fill="#81C4ED" transform="translate(0,0)"/>
<path d="" fill="#357BAE" transform="translate(0,0)"/>
<path d="" fill="#89C8EF" transform="translate(0,0)"/>
<path d="" fill="#357DAF" transform="translate(0,0)"/>
<path d="" fill="#86C8EF" transform="translate(0,0)"/>
<path d="" fill="#387EB0" transform="translate(0,0)"/>
<path d="" fill="#85C9F0" transform="translate(0,0)"/>
<path d="" fill="#3F95C5" transform="translate(0,0)"/>
<path d="" fill="#88CCF1" transform="translate(0,0)"/>
<path d="" fill="#3A96C9" transform="translate(0,0)"/>
<path d="" fill="#81C9F0" transform="translate(0,0)"/>
<path d="" fill="#45A1D2" transform="translate(0,0)"/>
<path d="" fill="#84CCF2" transform="translate(0,0)"/>
<path d="" fill="#4AA3D1" transform="translate(0,0)"/>
<path d="" fill="#54C2E6" transform="translate(0,0)"/>
<path d="" fill="#89CFF2" transform="translate(0,0)"/>
<path d="" fill="#4AA2D1" transform="translate(0,0)"/>
<path d="" fill="#47B3DA" transform="translate(0,0)"/>
<path d="" fill="#7FCCF2" transform="translate(0,0)"/>
<path d="" fill="#48AED4" transform="translate(0,0)"/>
<path d="" fill="#88D1F4" transform="translate(0,0)"/>
<path d="" fill="#38AAD7" transform="translate(0,0)"/>
<path d="" fill="#87D1F4" transform="translate(0,0)"/>
<path d="" fill="#19A9E3" transform="translate(0,0)"/>
<path d="" fill="#83D2F5" transform="translate(0,0)"/>
<path d="" fill="#63A8C3" transform="translate(0,0)"/>
<path d="" fill="#ABDEF8" transform="translate(0,0)"/>
<path d="" fill="#65A7C0" transform="translate(0,0)"/>
<path d="" fill="#A9DEF9" transform="translate(0,0)"/>
<path d="" fill="#63A5BF" transform="translate(0,0)"/>
<path d="" fill="#94D9FA" transform="translate(0,0)"/>
<path d="" fill="#9CDDFC" transform="translate(0,0)"/>
<path d="" fill="#97DAFB" transform="translate(0,0)"/>
<path d="" fill="#2DA7DA" transform="translate(0,0)"/>
<path d="" fill="#3DA5D1" transform="translate(0,0)"/>
<path d="" fill="#4DA7CB" transform="translate(0,0)"/>
<path d="" fill="#4DB6DE" transform="translate(0,0)"/>
<path d="" fill="#9BE3FB" transform="translate(0,0)"/>
<path d="" fill="#EAFFFE" transform="translate(0,0)"/>
<path d="" fill="#9AE5FA" transform="translate(0,0)"/>
<path d="" fill="#F1FFFE" transform="translate(0,0)"/>
<path d="" fill="#ECFFFE" transform="translate(0,0)"/>
<path d="" fill="#A9EAFE" transform="translate(0,0)"/>
<path d="" fill="#A6EBFE" transform="translate(0,0)"/>
<path d="" fill="#A7ECFE" transform="translate(0,0)"/>
<path d="" fill="#FFFDFD" transform="translate(0,0)"/>
<path d="" fill="#ADEFFF" transform="translate(0,0)"/>
<path d="" fill="#FFFDFD" transform="translate(0,0)"/>
<path d="" fill="#B3F1FF" transform="translate(0,0)"/>
<path d="" fill="#BAF4FE" transform="translate(0,0)"/>
<path d="" fill="#F9FFFD" transform="translate(0,0)"/>
<path d="" fill="#FEFFFD" transform="translate(0,0)"/>
<path d="" fill="#C3F8FE" transform="translate(0,0)"/>
<path d="" fill="#FFFDFE" transform="translate(0,0)"/>
<path d="" fill="#D3FEFE" transform="translate(0,0)"/>
</svg>
