<?xml version="1.0" encoding="UTF-8"?>
<svg version="1.1" xmlns="http://www.w3.org/2000/svg" width="94" height="94">
<path d="M0 0 C0.69773026 -0.00671722 1.39546051 -0.01343445 2.11433411 -0.02035522 C4.42663646 -0.03939253 6.73864949 -0.04326218 9.05102539 -0.04541016 C10.65523906 -0.05183391 12.25945155 -0.05856195 13.86366272 -0.06558228 C17.22879758 -0.07756922 20.59382967 -0.08126163 23.95898438 -0.08007812 C28.27476375 -0.0798748 32.58988556 -0.10718348 36.905509 -0.14162254 C40.21947771 -0.16384082 43.53328688 -0.16791725 46.84732246 -0.16685867 C48.43857656 -0.16922205 50.02983457 -0.17808688 51.62101555 -0.19352341 C53.84547075 -0.21308311 56.0684913 -0.20738665 58.29296875 -0.1953125 C59.55934677 -0.19816254 60.82572479 -0.20101257 62.13047791 -0.20394897 C65.21118164 0.29052734 65.21118164 0.29052734 66.9777832 2.19750977 C67.38480469 2.88820557 67.79182617 3.57890137 68.21118164 4.29052734 C69.08653564 4.9419873 69.96188965 5.59344727 70.86376953 6.26464844 C74.56626972 11.03727323 73.86796994 15.83352267 73.76977539 21.70458984 C73.76627831 23.51447891 73.76627831 23.51447891 73.76271057 25.3609314 C73.75297772 27.90784794 73.73120166 30.45474297 73.69824219 33.00146484 C73.64877646 36.90803927 73.63675779 40.81335533 73.63110352 44.72021484 C73.6170199 47.19418663 73.60081636 49.66814745 73.58227539 52.14208984 C73.57423134 53.89992294 73.57423134 53.89992294 73.56602478 55.69326782 C73.55003738 56.77804413 73.53404999 57.86282043 73.51757812 58.98046875 C73.50161842 60.4134581 73.50161842 60.4134581 73.4853363 61.87539673 C73.21118164 64.29052734 73.21118164 64.29052734 71.21118164 67.29052734 C68.71364471 67.58784595 66.46309837 67.68982544 63.96337891 67.6628418 C63.2168808 67.66649246 62.47038269 67.67014313 61.70126343 67.67390442 C59.22647554 67.68202946 56.75233851 67.66838284 54.27758789 67.65380859 C52.56127422 67.65329016 50.84495994 67.6538072 49.12864685 67.65531921 C45.52805744 67.6552294 41.9276915 67.6447824 38.32714844 67.62670898 C33.70887379 67.60403849 29.09092637 67.60347363 24.47261143 67.61022663 C20.92702826 67.61356661 17.38151985 67.6069357 13.83595085 67.5970974 C12.13308033 67.59324431 10.43020149 67.59209763 8.72732735 67.59368324 C6.34751649 67.59405364 3.9681266 67.58144044 1.58837891 67.56518555 C0.88229996 67.56766296 0.17622101 67.57014038 -0.55125427 67.57269287 C-4.19079147 67.53296943 -5.67057994 67.36935296 -8.78881836 65.29052734 C-9.16304016 62.67175293 -9.16304016 62.67175293 -9.16113281 59.31201172 C-9.1673616 58.05731079 -9.17359039 56.80260986 -9.18000793 55.5098877 C-9.17132011 54.13468022 -9.16200216 52.75947661 -9.15209961 51.38427734 C-9.15158115 49.9794515 -9.15209831 48.57462493 -9.15361023 47.1697998 C-9.15352045 44.22409245 -9.14308003 41.27865846 -9.125 38.33300781 C-9.10231235 34.5531237 -9.10176802 30.77363921 -9.10851765 26.99370575 C-9.11185577 24.09239131 -9.10523056 21.19116833 -9.09538841 18.28987122 C-9.09153339 16.8959857 -9.09038945 15.50209002 -9.09197426 14.10820007 C-9.09234422 12.16179123 -9.07826308 10.21539568 -9.06347656 8.26904297 C-9.05886917 7.16032837 -9.05426178 6.05161377 -9.04951477 4.90930176 C-8.4875464 -0.73584074 -4.76071798 0.02867754 0 0 Z " fill="#50A4FD" transform="translate(14.788818359375,13.70947265625)"/>
<path d="M0 0 C1.32 0.33 2.64 0.66 4 1 C4.495 2.485 4.495 2.485 5 4 C5.99 4.66 6.98 5.32 8 6 C8.3742218 8.30833435 8.3742218 8.30833435 8.37231445 11.22827148 C8.38165764 12.86523232 8.38165764 12.86523232 8.39118958 14.53526306 C8.38197983 15.71858719 8.37277008 16.90191132 8.36328125 18.12109375 C8.36402901 19.93735008 8.36402901 19.93735008 8.36479187 21.79029846 C8.36244773 24.35508868 8.35269937 26.91988104 8.33618164 29.48461914 C8.31261869 33.41768919 8.31561476 37.3500806 8.32226562 41.28320312 C8.31668822 43.77083739 8.30957795 46.25846879 8.30078125 48.74609375 C8.30169266 49.92739365 8.30260406 51.10869354 8.30354309 52.32579041 C8.29401108 53.42024979 8.28447906 54.51470917 8.2746582 55.64233398 C8.26774712 57.08889626 8.26774712 57.08889626 8.26069641 58.56468201 C8 61 8 61 6 64 C3.50246307 64.29731861 1.25191673 64.39929809 -1.24780273 64.37231445 C-1.99430084 64.37596512 -2.74079895 64.37961578 -3.50991821 64.38337708 C-5.9847061 64.39150211 -8.45884313 64.37785549 -10.93359375 64.36328125 C-12.64990743 64.36276282 -14.3662217 64.36327986 -16.08253479 64.36479187 C-19.68312421 64.36470206 -23.28349014 64.35425505 -26.8840332 64.33618164 C-31.50230785 64.31351115 -36.12025527 64.31294629 -40.73857021 64.31969929 C-44.28415338 64.32303926 -47.82966179 64.31640836 -51.37523079 64.30657005 C-53.07810131 64.30271697 -54.78098015 64.30157029 -56.48385429 64.3031559 C-58.86366515 64.3035263 -61.24305504 64.29091309 -63.62280273 64.2746582 C-64.32888168 64.27713562 -65.03496063 64.27961304 -65.76243591 64.28216553 C-69.40197312 64.24244208 -70.88176158 64.07882562 -74 62 C-74.1875 59.375 -74.1875 59.375 -74 57 C-71.525 56.505 -71.525 56.505 -69 56 C-68.67 54.68 -68.34 53.36 -68 52 C-54.635 52.495 -54.635 52.495 -41 53 C-41 45.08 -41 37.16 -41 29 C-39 31 -39 31 -38.77294922 33.61376953 C-38.78342285 34.69255371 -38.79389648 35.77133789 -38.8046875 36.8828125 C-38.81113281 38.04941406 -38.81757812 39.21601562 -38.82421875 40.41796875 C-38.84097656 41.64128906 -38.85773437 42.86460938 -38.875 44.125 C-38.88402344 45.35605469 -38.89304688 46.58710937 -38.90234375 47.85546875 C-38.92597452 50.90383815 -38.95891946 53.95182382 -39 57 C-36.36 57.33 -33.72 57.66 -31 58 C-31 57.01 -31 56.02 -31 55 C-31.99 54.67 -32.98 54.34 -34 54 C-35.0592918 50.82212459 -35.11458939 48.57411057 -35.09765625 45.23828125 C-35.09443359 44.12001953 -35.09121094 43.00175781 -35.08789062 41.84960938 C-35.07532227 40.09874023 -35.07532227 40.09874023 -35.0625 38.3125 C-35.05798828 37.13365234 -35.05347656 35.95480469 -35.04882812 34.74023438 C-35.03703273 31.82677211 -35.0205727 28.91341137 -35 26 C-34.67 26 -34.34 26 -34 26 C-33.82875023 28.43725124 -33.66296104 30.87469097 -33.5 33.3125 C-33.45230469 33.98345703 -33.40460937 34.65441406 -33.35546875 35.34570312 C-32.96604998 41.27043151 -33 47.02084991 -33 53 C-24.09 53 -15.18 53 -6 53 C-6.33 43.76 -6.66 34.52 -7 25 C-15.25 24.67 -23.5 24.34 -32 24 C-32 23.34 -32 22.68 -32 22 C-43.55 21.67 -55.1 21.34 -67 21 C-67.33 19.35 -67.66 17.7 -68 16 C-47.54 16 -27.08 16 -6 16 C-6 14.68 -6 13.36 -6 12 C-4.0625 12.375 -4.0625 12.375 -2 13 C-1.505 13.99 -1.505 13.99 -1 15 C-0.67 10.05 -0.34 5.1 0 0 Z " fill="#366DEB" transform="translate(80,17)"/>
<path d="M0 0 C1.12019531 -0.00128906 2.24039063 -0.00257812 3.39453125 -0.00390625 C4.57402344 -0.00003906 5.75351562 0.00382812 6.96875 0.0078125 C8.73798828 0.00201172 8.73798828 0.00201172 10.54296875 -0.00390625 C12.22326172 -0.00197266 12.22326172 -0.00197266 13.9375 0 C14.97326172 0.00112793 16.00902344 0.00225586 17.07617188 0.00341797 C19.46875 0.1328125 19.46875 0.1328125 20.46875 1.1328125 C20.55642112 3.20543326 20.57570873 5.28101544 20.56640625 7.35546875 C20.56318359 8.61552734 20.55996094 9.87558594 20.55664062 11.17382812 C20.54828403 12.51432359 20.53981907 13.85481838 20.53125 15.1953125 C20.5262366 16.53971192 20.52167342 17.8841131 20.51757812 19.22851562 C20.50574497 22.52996683 20.48780886 25.8313951 20.46875 29.1328125 C11.55875 29.1328125 2.64875 29.1328125 -6.53125 29.1328125 C-6.55416487 25.163447 -6.57409015 21.1942493 -6.58618164 17.22485352 C-6.59122057 15.87360864 -6.59805177 14.52236924 -6.60668945 13.17114258 C-6.61877419 11.23260816 -6.62394828 9.2940345 -6.62890625 7.35546875 C-6.63414307 6.18765869 -6.63937988 5.01984863 -6.64477539 3.81665039 C-6.44261523 -0.96258969 -4.24679027 0.00462469 0 0 Z " fill="#E0E8FE" transform="translate(53.53125,40.8671875)"/>
<path d="M0 0 C1.12019531 -0.00128906 2.24039062 -0.00257812 3.39453125 -0.00390625 C4.57402344 -0.00003906 5.75351562 0.00382812 6.96875 0.0078125 C8.73798828 0.00201172 8.73798828 0.00201172 10.54296875 -0.00390625 C12.22326172 -0.00197266 12.22326172 -0.00197266 13.9375 0 C14.97326172 0.00112793 16.00902344 0.00225586 17.07617188 0.00341797 C19.46875 0.1328125 19.46875 0.1328125 20.46875 1.1328125 C20.55642112 3.20543326 20.57570873 5.28101544 20.56640625 7.35546875 C20.56318359 8.61552734 20.55996094 9.87558594 20.55664062 11.17382812 C20.54828403 12.51432359 20.53981907 13.85481838 20.53125 15.1953125 C20.5262366 16.53971192 20.52167342 17.8841131 20.51757812 19.22851562 C20.50574497 22.52996683 20.48780886 25.8313951 20.46875 29.1328125 C11.55875 29.1328125 2.64875 29.1328125 -6.53125 29.1328125 C-6.55416487 25.163447 -6.57409015 21.1942493 -6.58618164 17.22485352 C-6.59122057 15.87360864 -6.59805177 14.52236924 -6.60668945 13.17114258 C-6.61877419 11.23260816 -6.62394828 9.2940345 -6.62890625 7.35546875 C-6.63414307 6.18765869 -6.63937988 5.01984863 -6.64477539 3.81665039 C-6.44261523 -0.96258969 -4.24679027 0.00462469 0 0 Z " fill="#ECECF9" transform="translate(18.53125,40.8671875)"/>
<path d="M0 0 C2.31 0.33 4.62 0.66 7 1 C7.05062418 8.63546931 7.08570152 16.2708955 7.10986328 23.90649414 C7.11993368 26.50514341 7.13359071 29.10378131 7.15087891 31.70239258 C7.17508139 35.43313397 7.18647266 39.16372581 7.1953125 42.89453125 C7.20563507 44.06023148 7.21595764 45.2259317 7.22659302 46.42695618 C7.22674408 47.50785019 7.22689514 48.5887442 7.22705078 49.70239258 C7.231492 50.65503494 7.23593323 51.60767731 7.24050903 52.58918762 C7 55 7 55 5 58 C2.48611883 58.28666087 0.21925087 58.37862623 -2.29541016 58.34057617 C-3.04672714 58.34101425 -3.79804413 58.34145233 -4.5721283 58.34190369 C-7.06136858 58.33980969 -9.54993955 58.31645062 -12.0390625 58.29296875 C-13.76255933 58.28737495 -15.48606091 58.28310383 -17.20956421 58.28010559 C-21.75037763 58.26863976 -26.29090412 58.2391578 -30.831604 58.20599365 C-35.46321735 58.1753301 -40.09487696 58.16160822 -44.7265625 58.14648438 C-53.81783455 58.11428963 -62.90889343 58.06307243 -72 58 C-72.495 56.515 -72.495 56.515 -73 55 C-48.91 55 -24.82 55 0 55 C0 36.85 0 18.7 0 0 Z " fill="#1D2AA0" transform="translate(81,23)"/>
<path d="M0 0 C20.46 0 40.92 0 62 0 C62 2.31 62 4.62 62 7 C41.54 7 21.08 7 0 7 C0 4.69 0 2.38 0 0 Z " fill="#F2F3FC" transform="translate(12,26)"/>
<path d="M0 0 C0.33 0 0.66 0 1 0 C1.66 3.3 2.32 6.6 3 10 C22.47 10.66 41.94 11.32 62 12 C62 12.33 62 12.66 62 13 C54.08 13 46.16 13 38 13 C37.67 19.27 37.34 25.54 37 32 C36.67 32 36.34 32 36 32 C35.97287934 33.43739513 35.95354933 34.87493863 35.9375 36.3125 C35.92589844 37.11300781 35.91429687 37.91351563 35.90234375 38.73828125 C35.90342145 41.16861334 35.90342145 41.16861334 37 44 C37.99 44.495 37.99 44.495 39 45 C39 45.99 39 46.98 39 48 C33.25 48.125 33.25 48.125 31 47 C30.98018066 46.24380371 30.96036133 45.48760742 30.93994141 44.70849609 C30.84435428 41.26366282 30.73481109 37.81940799 30.625 34.375 C30.5940625 33.18519531 30.563125 31.99539062 30.53125 30.76953125 C30.49257813 29.61582031 30.45390625 28.46210937 30.4140625 27.2734375 C30.36693115 25.68668213 30.36693115 25.68668213 30.31884766 24.06787109 C30.05359571 20.43924052 30.05359571 20.43924052 28 15 C15.13 14.505 15.13 14.505 2 14 C-0.25 5 -0.25 5 0 0 Z " fill="#3D89FC" transform="translate(10,27)"/>
<path d="M0 0 C8.25 0 16.5 0 25 0 C25 3.96 25 7.92 25 12 C16.75 12 8.5 12 0 12 C0 8.04 0 4.08 0 0 Z " fill="#EEF1FE" transform="translate(48,41)"/>
<path d="M0 0 C0.625 1.8125 0.625 1.8125 1 4 C0.34 4.99 -0.32 5.98 -1 7 C-3.51388117 7.28666087 -5.78074913 7.37862623 -8.29541016 7.34057617 C-9.04672714 7.34101425 -9.79804413 7.34145233 -10.5721283 7.34190369 C-13.06136858 7.33980969 -15.54993955 7.31645062 -18.0390625 7.29296875 C-19.76255933 7.28737495 -21.48606091 7.28310383 -23.20956421 7.28010559 C-27.75037763 7.26863976 -32.29090412 7.2391578 -36.831604 7.20599365 C-41.46321735 7.1753301 -46.09487696 7.16160822 -50.7265625 7.14648438 C-59.81783455 7.11428963 -68.90889343 7.06307243 -78 7 C-78.33 6.01 -78.66 5.02 -79 4 C-54.91 4 -30.82 4 -6 4 C-6 3.01 -6 2.02 -6 1 C-3.03 0.505 -3.03 0.505 0 0 Z " fill="#2B48B1" transform="translate(87,74)"/>
<path d="M0 0 C0.33 0 0.66 0 1 0 C1 9.24 1 18.48 1 28 C-7.91 28 -16.82 28 -26 28 C-26 26.35 -26 24.7 -26 23 C-17.42 23 -8.84 23 0 23 C0 15.41 0 7.82 0 0 Z " fill="#A7C5FC" transform="translate(73,42)"/>
<path d="M0 0 C8.58 0 17.16 0 26 0 C26 1.98 26 3.96 26 6 C17.42 6 8.84 6 0 6 C0 4.02 0 2.04 0 0 Z " fill="#CADBFE" transform="translate(47,59)"/>
<path d="M0 0 C0.66 0 1.32 0 2 0 C3.35439668 2.70879335 3.06501451 5.00933268 3 8 C-0.90520265 8.94373083 -4.38688564 9.04984848 -8.39453125 8.87890625 C-10.19760742 8.80639648 -10.19760742 8.80639648 -12.03710938 8.73242188 C-13.28298828 8.67634766 -14.52886719 8.62027344 -15.8125 8.5625 C-17.07771484 8.51029297 -18.34292969 8.45808594 -19.64648438 8.40429688 C-22.76458806 8.27486616 -25.88235178 8.13990871 -29 8 C-29 7.67 -29 7.34 -29 7 C-39.56 6.67 -50.12 6.34 -61 6 C-61 5.67 -61 5.34 -61 5 C-41.2 4.67 -21.4 4.34 -1 4 C-0.67 2.68 -0.34 1.36 0 0 Z " fill="#244FDE" transform="translate(74,29)"/>
<path d="M0 0 C1.27685165 0.00222061 2.55370331 0.00444122 3.86924744 0.00672913 C4.57165054 0.0065831 5.27405365 0.00643707 5.9977417 0.00628662 C8.32985983 0.00698579 10.66189904 0.01477835 12.9940033 0.02259827 C14.60683142 0.02446243 16.21966012 0.02588634 17.83248901 0.02688599 C22.08550062 0.03071129 26.33847828 0.04054167 30.59147644 0.05158997 C34.92812135 0.06180383 39.26477171 0.06638355 43.60142517 0.07142639 C52.11641474 0.08216393 60.63137667 0.09924049 69.14634705 0.12025452 C69.14634705 0.45025452 69.14634705 0.78025452 69.14634705 1.12025452 C67.84422272 1.12905388 67.84422272 1.12905388 66.51579285 1.13803101 C58.33468066 1.19593612 50.15384211 1.2680002 41.97299576 1.35596943 C37.76712713 1.40069598 33.56135589 1.43994691 29.35533142 1.46669006 C25.29621784 1.49270049 21.23747853 1.53308644 17.1785965 1.58344078 C15.63010564 1.60012489 14.08155004 1.61162956 12.53298187 1.61786842 C10.36366549 1.6274931 8.19530988 1.65553052 6.02622986 1.68788147 C4.79156982 1.69898453 3.55690979 1.71008759 2.28483582 1.7215271 C-1.04825762 2.14497795 -2.43567228 2.8517115 -4.85365295 5.12025452 C-3.73298811 0.15731019 -3.73298811 0.15731019 0 0 Z " fill="#6DC2FE" transform="translate(10.853652954101563,13.879745483398438)"/>
<path d="M0 0 C0.33 0 0.66 0 1 0 C1 13.86 1 27.72 1 42 C0.67 42 0.34 42 0 42 C-0.01458252 41.29915283 -0.02916504 40.59830566 -0.04418945 39.8762207 C-0.11885487 36.68776991 -0.21545475 33.50034487 -0.3125 30.3125 C-0.33505859 29.20970703 -0.35761719 28.10691406 -0.38085938 26.97070312 C-0.41630859 25.90400391 -0.45175781 24.83730469 -0.48828125 23.73828125 C-0.51446533 22.75899658 -0.54064941 21.77971191 -0.56762695 20.77075195 C-1.0652122 17.58210435 -2.26158064 15.68716549 -4 13 C-4.375 10.375 -4.375 10.375 -4 8 C-3.02149805 6.97895449 -2.02019573 5.9793879 -1 5 C-0.27802838 2.39388923 -0.27802838 2.39388923 0 0 Z " fill="#3B88FC" transform="translate(79,32)"/>
<path d="M0 0 C25.08 0 50.16 0 76 0 C76 0.33 76 0.66 76 1 C50.92 1 25.84 1 0 1 C0 0.67 0 0.34 0 0 Z " fill="#32459E" transform="translate(9,82)"/>
<path d="M0 0 C23.76 0 47.52 0 72 0 C72 0.33 72 0.66 72 1 C48.24 1 24.48 1 0 1 C0 0.67 0 0.34 0 0 Z " fill="#0F76FE" transform="translate(8,12)"/>
<path d="M0 0 C0.33 0 0.66 0 1 0 C1 9.24 1 18.48 1 28 C-7.91 28 -16.82 28 -26 28 C-25.67 26.68 -25.34 25.36 -25 24 C-24.67 24.99 -24.34 25.98 -24 27 C-20.54099522 26.8904307 -17.08310891 26.75973152 -13.625 26.625 C-12.64015625 26.5940625 -11.6553125 26.563125 -10.640625 26.53125 C-9.22910156 26.47324219 -9.22910156 26.47324219 -7.7890625 26.4140625 C-6.48509521 26.36693115 -6.48509521 26.36693115 -5.15478516 26.31884766 C-2.79038206 26.18770567 -2.79038206 26.18770567 -1 24 C-0.62864085 21.47962036 -0.62864085 21.47962036 -0.5859375 18.5546875 C-0.54726563 17.47832031 -0.50859375 16.40195312 -0.46875 15.29296875 C-0.42234375 13.60107422 -0.42234375 13.60107422 -0.375 11.875 C-0.33632813 10.73933594 -0.29765625 9.60367188 -0.2578125 8.43359375 C-0.16332399 5.62256044 -0.07776459 2.81153767 0 0 Z " fill="#CCCFEC" transform="translate(38,42)"/>
<path d="M0 0 C0.33 0 0.66 0 1 0 C1 20.46 1 40.92 1 62 C0.67 62 0.34 62 0 62 C0 41.54 0 21.08 0 0 Z " fill="#4499FC" transform="translate(4,16)"/>
<path d="M0 0 C1.32 0.33 2.64 0.66 4 1 C4.33 1.99 4.66 2.98 5 4 C6.49985609 5.66710346 6.49985609 5.66710346 8 7 C5.69 6.67 3.38 6.34 1 6 C1 18.21 1 30.42 1 43 C0.67 43 0.34 43 0 43 C0 28.81 0 14.62 0 0 Z " fill="#3168E7" transform="translate(80,17)"/>
<path d="M0 0 C0.33 0 0.66 0 1 0 C1 18.15 1 36.3 1 55 C0.67 55 0.34 55 0 55 C0 36.85 0 18.7 0 0 Z " fill="#0E21AB" transform="translate(89,23)"/>
<path d="M0 0 C0.625 1.8125 0.625 1.8125 1 4 C0.01 5.485 0.01 5.485 -1 7 C-1.70125 6.855625 -2.4025 6.71125 -3.125 6.5625 C-6.07556141 5.98521625 -9.03270151 5.48304859 -12 5 C-12 4.67 -12 4.34 -12 4 C-10.02 4 -8.04 4 -6 4 C-6 3.01 -6 2.02 -6 1 C-4.02 0.67 -2.04 0.34 0 0 Z " fill="#2F4DCC" transform="translate(87,74)"/>
<path d="M0 0 C1.9375 0.3125 1.9375 0.3125 4 1 C4.33 1.99 4.66 2.98 5 4 C6.49985609 5.66710346 6.49985609 5.66710346 8 7 C1.125 6.125 1.125 6.125 0 5 C-0.04063832 3.33382885 -0.042721 1.66611905 0 0 Z " fill="#3C59D3" transform="translate(80,17)"/>
<path d="M0 0 C2.475 0.495 2.475 0.495 5 1 C5 1.99 5 2.98 5 4 C3.68 4 2.36 4 1 4 C0.67 2.68 0.34 1.36 0 0 Z " fill="#243BD0" transform="translate(81,75)"/>
<path d="" fill="#334DCB" transform="translate(0,0)"/>
<path d="" fill="#3691FD" transform="translate(0,0)"/>
<path d="" fill="#384FC8" transform="translate(0,0)"/>
<path d="" fill="#4251BC" transform="translate(0,0)"/>
<path d="" fill="#274CD4" transform="translate(0,0)"/>
<path d="" fill="#4055BE" transform="translate(0,0)"/>
<path d="" fill="#1F35B1" transform="translate(0,0)"/>
<path d="" fill="#3A4FBD" transform="translate(0,0)"/>
<path d="" fill="#3FADFF" transform="translate(0,0)"/>
<path d="" fill="#5FA3FE" transform="translate(0,0)"/>
<path d="" fill="#78B1FE" transform="translate(0,0)"/>
</svg>
